<?xml version="1.0" encoding="UTF-8"?>
<svg xmlns="http://www.w3.org/2000/svg"
     xmlns:xlink="http://www.w3.org/1999/xlink"
     xmlns:gadfly="http://www.gadflyjl.org/ns"
     version="1.2"
     width="140mm" height="80mm" viewBox="0 0 140 80"
     stroke="none"
     fill="#000000"
     stroke-width="0.3"
     font-size="3.88"
>
<defs>
  <marker id="arrow" markerWidth="15" markerHeight="7" refX="5" refY="3.5" orient="auto" markerUnits="strokeWidth">
    <path d="M0,0 L15,3.5 L0,7 z" stroke="context-stroke" fill="context-stroke"/>
  </marker>
</defs>
<g class="plotroot xscalable yscalable" id="img-bfe173b7-1">
  <g font-size="3.88" font-family="'PT Sans','Helvetica Neue','Helvetica',sans-serif" fill="#564A55" stroke="#000000" stroke-opacity="0.000" id="img-bfe173b7-2">
    <g transform="translate(77.32,68.39)">
      <g class="primitive">
        <text text-anchor="middle" dy="0.6em">Every 10th Epoch</text>
      </g>
    </g>
  </g>
  <g class="guide xlabels" font-size="2.82" font-family="'PT Sans Caption','Helvetica Neue','Helvetica',sans-serif" fill="#6C606B" id="img-bfe173b7-3">
    <g transform="translate(21.63,61.72)">
      <g class="primitive">
        <text text-anchor="middle" dy="0.6em">0</text>
      </g>
    </g>
    <g transform="translate(43.91,61.72)">
      <g class="primitive">
        <text text-anchor="middle" dy="0.6em">100</text>
      </g>
    </g>
    <g transform="translate(66.18,61.72)">
      <g class="primitive">
        <text text-anchor="middle" dy="0.6em">200</text>
      </g>
    </g>
    <g transform="translate(88.45,61.72)">
      <g class="primitive">
        <text text-anchor="middle" dy="0.6em">300</text>
      </g>
    </g>
    <g transform="translate(110.73,61.72)">
      <g class="primitive">
        <text text-anchor="middle" dy="0.6em">400</text>
      </g>
    </g>
    <g transform="translate(133,61.72)">
      <g class="primitive">
        <text text-anchor="middle" dy="0.6em">500</text>
      </g>
    </g>
  </g>
  <g clip-path="url(#img-bfe173b7-4)">
    <g id="img-bfe173b7-5">
      <g pointer-events="visible" fill="#000000" fill-opacity="0.000" stroke="#000000" stroke-opacity="0.000" class="guide background" id="img-bfe173b7-6">
        <g transform="translate(77.32,35.66)" id="img-bfe173b7-7">
          <path d="M-57.68,-25.05 L 57.68 -25.05 57.68 25.05 -57.68 25.05 z" class="primitive"/>
        </g>
      </g>
      <g class="guide ygridlines xfixed" stroke-dasharray="0.5,0.5" stroke-width="0.2" stroke="#D0D0E0" id="img-bfe173b7-8">
        <g transform="translate(77.32,58.71)" id="img-bfe173b7-9">
          <path fill="none" d="M-57.68,0 L 57.68 0" class="primitive"/>
        </g>
        <g transform="translate(77.32,43.35)" id="img-bfe173b7-10">
          <path fill="none" d="M-57.68,0 L 57.68 0" class="primitive"/>
        </g>
        <g transform="translate(77.32,27.98)" id="img-bfe173b7-11">
          <path fill="none" d="M-57.68,0 L 57.68 0" class="primitive"/>
        </g>
        <g transform="translate(77.32,12.61)" id="img-bfe173b7-12">
          <path fill="none" d="M-57.68,0 L 57.68 0" class="primitive"/>
        </g>
      </g>
      <g class="guide xgridlines yfixed" stroke-dasharray="0.5,0.5" stroke-width="0.2" stroke="#D0D0E0" id="img-bfe173b7-13">
        <g transform="translate(21.63,35.66)" id="img-bfe173b7-14">
          <path fill="none" d="M0,-25.05 L 0 25.05" class="primitive"/>
        </g>
        <g transform="translate(43.91,35.66)" id="img-bfe173b7-15">
          <path fill="none" d="M0,-25.05 L 0 25.05" class="primitive"/>
        </g>
        <g transform="translate(66.18,35.66)" id="img-bfe173b7-16">
          <path fill="none" d="M0,-25.05 L 0 25.05" class="primitive"/>
        </g>
        <g transform="translate(88.45,35.66)" id="img-bfe173b7-17">
          <path fill="none" d="M0,-25.05 L 0 25.05" class="primitive"/>
        </g>
        <g transform="translate(110.73,35.66)" id="img-bfe173b7-18">
          <path fill="none" d="M0,-25.05 L 0 25.05" class="primitive"/>
        </g>
        <g transform="translate(133,35.66)" id="img-bfe173b7-19">
          <path fill="none" d="M0,-25.05 L 0 25.05" class="primitive"/>
        </g>
      </g>
      <g class="plotpanel" id="img-bfe173b7-20">
        <metadata>
          <boundingbox value="19.631666666666675mm 10.611666666666665mm 115.36833333333333mm 50.10333333333334mm"/>
          <unitbox value="-8.979213121623443 101.3014243366351 517.9584262432469 -32.602848673270195"/>
        </metadata>
        <g stroke-width="0.3" fill="#000000" fill-opacity="0.000" class="geometry" id="img-bfe173b7-21">
          <g class="color_LCHab{Float32}(70.0f0,60.0f0,240.0f0)" stroke-dasharray="none" stroke="#00BFFF" id="img-bfe173b7-22">
            <g transform="translate(71.97,20)" id="img-bfe173b7-23">
              <path fill="none" d="M-50.12,35.77 L -49.89 32.32 -49.67 29.73 -49.45 28.87 -49.22 27.14 -49 24.55 -48.78 21.1 -48.56 18.51 -48.33 16.78 -48.11 15.92 -47.89 15.92 -47.67 15.05 -47.44 14.19 -47.22 14.19 -47 13.33 -46.77 13.33 -46.55 10.74 -46.33 10.74 -46.11 10.74 -45.88 10.74 -45.66 9.87 -45.44 9.87 -45.22 9.87 -44.99 9.01 -44.77 8.15 -44.55 6.42 -44.32 6.42 -44.1 6.42 -43.88 6.42 -43.66 5.56 -43.43 5.56 -43.21 5.56 -42.99 4.69 -42.77 4.69 -42.54 4.69 -42.32 4.69 -42.1 4.69 -41.87 4.69 -41.65 4.69 -41.43 4.69 -41.21 4.69 -40.98 4.69 -40.76 3.83 -40.54 3.83 -40.32 3.83 -40.09 3.83 -39.87 3.83 -39.65 2.97 -39.42 1.24 -39.2 1.24 -38.98 2.1 -38.76 1.24 -38.53 1.24 -38.31 1.24 -38.09 1.24 -37.87 1.24 -37.64 1.24 -37.42 1.24 -37.2 1.24 -36.97 1.24 -36.75 1.24 -36.53 1.24 -36.31 1.24 -36.08 1.24 -35.86 1.24 -35.64 1.24 -35.42 1.24 -35.19 1.24 -34.97 1.24 -34.75 1.24 -34.52 1.24 -34.3 1.24 -34.08 1.24 -33.86 1.24 -33.63 1.24 -33.41 1.24 -33.19 1.24 -32.97 1.24 -32.74 1.24 -32.52 1.24 -32.3 1.24 -32.07 1.24 -31.85 0.38 -31.63 0.38 -31.41 0.38 -31.18 0.38 -30.96 0.38 -30.74 0.38 -30.51 0.38 -30.29 0.38 -30.07 0.38 -29.85 0.38 -29.62 0.38 -29.4 0.38 -29.18 -0.49 -28.96 -0.49 -28.73 -0.49 -28.51 -0.49 -28.29 -0.49 -28.06 -0.49 -27.84 -0.49 -27.62 -0.49 -27.4 -0.49 -27.17 -0.49 -26.95 -0.49 -26.73 -0.49 -26.51 -0.49 -26.28 -0.49 -26.06 -0.49 -25.84 -0.49 -25.61 -0.49 -25.39 -0.49 -25.17 -0.49 -24.95 -0.49 -24.72 -0.49 -24.5 -0.49 -24.28 -0.49 -24.06 -0.49 -23.83 -0.49 -23.61 -0.49 -23.39 -0.49 -23.16 -0.49 -22.94 -0.49 -22.72 -0.49 -22.5 -0.49 -22.27 -0.49 -22.05 -0.49 -21.83 -0.49 -21.61 -0.49 -21.38 -0.49 -21.16 -0.49 -20.94 -0.49 -20.71 -0.49 -20.49 -0.49 -20.27 -0.49 -20.05 -0.49 -19.82 -0.49 -19.6 -0.49 -19.38 -0.49 -19.16 -0.49 -18.93 -0.49 -18.71 -0.49 -18.49 -0.49 -18.26 -0.49 -18.04 -0.49 -17.82 -0.49 -17.6 -0.49 -17.37 -0.49 -17.15 -0.49 -16.93 -0.49 -16.71 -0.49 -16.48 -0.49 -16.26 -0.49 -16.04 -0.49 -15.81 -0.49 -15.59 -0.49 -15.37 -0.49 -15.15 -0.49 -14.92 -0.49 -14.7 -0.49 -14.48 -0.49 -14.26 -0.49 -14.03 -0.49 -13.81 -0.49 -13.59 -0.49 -13.36 -0.49 -13.14 -0.49 -12.92 -0.49 -12.7 -0.49 -12.47 -0.49 -12.25 -0.49 -12.03 -0.49 -11.81 -0.49 -11.58 -0.49 -11.36 -0.49 -11.14 -0.49 -10.91 -0.49 -10.69 -0.49 -10.47 -0.49 -10.25 -0.49 -10.02 -0.49 -9.8 -1.35 -9.58 -1.35 -9.35 -1.35 -9.13 -1.35 -8.91 -1.35 -8.69 -1.35 -8.46 -1.35 -8.24 -1.35 -8.02 -1.35 -7.8 -1.35 -7.57 -1.35 -7.35 -1.35 -7.13 -1.35 -6.9 -1.35 -6.68 -1.35 -6.46 -1.35 -6.24 -1.35 -6.01 -1.35 -5.79 -1.35 -5.57 -1.35 -5.35 -1.35 -5.12 -1.35 -4.9 -1.35 -4.68 -1.35 -4.45 -1.35 -4.23 -1.35 -4.01 -1.35 -3.79 -1.35 -3.56 -1.35 -3.34 -1.35 -3.12 -1.35 -2.9 -1.35 -2.67 -1.35 -2.45 -1.35 -2.23 -1.35 -2 -1.35 -1.78 -1.35 -1.56 -1.35 -1.34 -1.35 -1.11 -1.35 -0.89 -1.35 -0.67 -1.35 -0.45 -1.35 -0.22 -1.35 -0 -1.35 0.22 -1.35 0.45 -1.35 0.67 -1.35 0.89 -1.35 1.11 -1.35 1.34 -1.35 1.56 -1.35 1.78 -1.35 2 -1.35 2.23 -1.35 2.45 -1.35 2.67 -1.35 2.9 -1.35 3.12 -1.35 3.34 -1.35 3.56 -1.35 3.79 -1.35 4.01 -1.35 4.23 -1.35 4.45 -1.35 4.68 -1.35 4.9 -1.35 5.12 -1.35 5.35 -1.35 5.57 -1.35 5.79 -1.35 6.01 -1.35 6.24 -1.35 6.46 -1.35 6.68 -1.35 6.9 -1.35 7.13 -1.35 7.35 -1.35 7.57 -1.35 7.8 -1.35 8.02 -1.35 8.24 -1.35 8.46 -1.35 8.69 -1.35 8.91 -1.35 9.13 -1.35 9.35 -1.35 9.58 -1.35 9.8 -1.35 10.02 -1.35 10.25 -1.35 10.47 -1.35 10.69 -1.35 10.91 -1.35 11.14 -1.35 11.36 -1.35 11.58 -1.35 11.81 -1.35 12.03 -1.35 12.25 -1.35 12.47 -1.35 12.7 -1.35 12.92 -1.35 13.14 -1.35 13.36 -1.35 13.59 -1.35 13.81 -1.35 14.03 -1.35 14.26 -1.35 14.48 -1.35 14.7 -1.35 14.92 -1.35 15.15 -1.35 15.37 -1.35 15.59 -1.35 15.81 -1.35 16.04 -1.35 16.26 -1.35 16.48 -1.35 16.71 -1.35 16.93 -1.35 17.15 -1.35 17.37 -1.35 17.6 -1.35 17.82 -1.35 18.04 -1.35 18.26 -1.35 18.49 -1.35 18.71 -1.35 18.93 -1.35 19.16 -1.35 19.38 -1.35 19.6 -1.35 19.82 -1.35 20.05 -1.35 20.27 -1.35 20.49 -1.35 20.71 -1.35 20.94 -1.35 21.16 -1.35 21.38 -1.35 21.61 -1.35 21.83 -1.35 22.05 -1.35 22.27 -1.35 22.5 -1.35 22.72 -1.35 22.94 -1.35 23.16 -1.35 23.39 -1.35 23.61 -1.35 23.83 -2.21 24.06 -2.21 24.28 -1.35 24.5 -1.35 24.72 -2.21 24.95 -2.21 25.17 -2.21 25.39 -2.21 25.61 -2.21 25.84 -2.21 26.06 -2.21 26.28 -2.21 26.51 -2.21 26.73 -2.21 26.95 -2.21 27.17 -2.21 27.4 -2.21 27.62 -2.21 27.84 -2.21 28.06 -2.21 28.29 -2.21 28.51 -2.21 28.73 -2.21 28.96 -2.21 29.18 -2.21 29.4 -2.21 29.62 -2.21 29.85 -2.21 30.07 -2.21 30.29 -3.08 30.51 -3.08 30.74 -3.08 30.96 -3.08 31.18 -3.08 31.41 -3.08 31.63 -3.08 31.85 -3.08 32.07 -3.08 32.3 -3.08 32.52 -3.08 32.74 -3.08 32.97 -3.08 33.19 -3.08 33.41 -3.08 33.63 -3.08 33.86 -3.08 34.08 -3.08 34.3 -3.08 34.52 -3.08 34.75 -3.08 34.97 -3.08 35.19 -3.08 35.42 -3.08 35.64 -3.08 35.86 -3.08 36.08 -3.08 36.31 -3.08 36.53 -3.08 36.75 -3.08 36.97 -3.08 37.2 -3.08 37.42 -3.08 37.64 -3.08 37.87 -3.08 38.09 -3.08 38.31 -3.08 38.53 -3.08 38.76 -3.08 38.98 -3.08 39.2 -3.08 39.42 -3.08 39.65 -3.08 39.87 -3.08 40.09 -3.08 40.32 -3.08 40.54 -3.08 40.76 -3.08 40.98 -3.08 41.21 -3.08 41.43 -3.08 41.65 -3.08 41.87 -3.08 42.1 -3.08 42.32 -3.08 42.54 -3.08 42.77 -3.08 42.99 -3.08 43.21 -3.08 43.43 -3.08 43.66 -3.08 43.88 -3.08 44.1 -3.08 44.32 -3.08 44.55 -3.08 44.77 -3.08 44.99 -3.08 45.22 -3.08 45.44 -3.08 45.66 -3.08 45.88 -3.08 46.11 -3.08 46.33 -3.08 46.55 -3.08 46.77 -3.08 47 -3.08 47.22 -3.08 47.44 -3.08 47.67 -3.08 47.89 -3.08 48.11 -3.08 48.33 -3.08 48.56 -3.08 48.78 -3.08 49 -3.08 49.22 -3.08 49.45 -3.08 49.67 -3.08 49.89 -3.08 50.12 -3.08" class="primitive"/>
            </g>
          </g>
        </g>
      </g>
    </g>
  </g>
  <g class="guide ylabels" font-size="2.82" font-family="'PT Sans Caption','Helvetica Neue','Helvetica',sans-serif" fill="#6C606B" id="img-bfe173b7-24">
    <g transform="translate(18.63,58.71)" id="img-bfe173b7-25">
      <g class="primitive">
        <text text-anchor="end" dy="0.35em">70</text>
      </g>
    </g>
    <g transform="translate(18.63,43.35)" id="img-bfe173b7-26">
      <g class="primitive">
        <text text-anchor="end" dy="0.35em">80</text>
      </g>
    </g>
    <g transform="translate(18.63,27.98)" id="img-bfe173b7-27">
      <g class="primitive">
        <text text-anchor="end" dy="0.35em">90</text>
      </g>
    </g>
    <g transform="translate(18.63,12.61)" id="img-bfe173b7-28">
      <g class="primitive">
        <text text-anchor="end" dy="0.35em">100</text>
      </g>
    </g>
  </g>
  <g font-size="3.88" font-family="'PT Sans','Helvetica Neue','Helvetica',sans-serif" fill="#564A55" stroke="#000000" stroke-opacity="0.000" id="img-bfe173b7-29">
    <g transform="translate(8.81,33.66)" id="img-bfe173b7-30">
      <g class="primitive">
        <text text-anchor="middle" dy="0.35em" transform="rotate(-90,0, 2)">Accuracy</text>
      </g>
    </g>
  </g>
  <g font-size="3.88" font-family="'PT Sans','Helvetica Neue','Helvetica',sans-serif" fill="#564A55" stroke="#000000" stroke-opacity="0.000" id="img-bfe173b7-31">
    <g transform="translate(77.32,5)" id="img-bfe173b7-32">
      <g class="primitive">
        <text text-anchor="middle" dy="0.6em">MersenneTwister(0)</text>
      </g>
    </g>
  </g>
</g>
<defs>
  <clipPath id="img-bfe173b7-4">
    <path d="M19.63,10.61 L 135 10.61 135 60.72 19.63 60.72" />
  </clipPath>
</defs>
</svg>
