<?xml version="1.0" encoding="UTF-8"?>
<svg xmlns="http://www.w3.org/2000/svg"
     xmlns:xlink="http://www.w3.org/1999/xlink"
     xmlns:gadfly="http://www.gadflyjl.org/ns"
     version="1.2"
     width="140mm" height="80mm" viewBox="0 0 140 80"
     stroke="none"
     fill="#000000"
     stroke-width="0.3"
     font-size="3.88"
>
<defs>
  <marker id="arrow" markerWidth="15" markerHeight="7" refX="5" refY="3.5" orient="auto" markerUnits="strokeWidth">
    <path d="M0,0 L15,3.5 L0,7 z" stroke="context-stroke" fill="context-stroke"/>
  </marker>
</defs>
<g class="plotroot xscalable yscalable" id="img-03e623eb-1">
  <g font-size="3.88" font-family="'PT Sans','Helvetica Neue','Helvetica',sans-serif" fill="#564A55" stroke="#000000" stroke-opacity="0.000" id="img-03e623eb-2">
    <g transform="translate(77.32,68.39)">
      <g class="primitive">
        <text text-anchor="middle" dy="0.6em">Every 10th Epoch</text>
      </g>
    </g>
  </g>
  <g class="guide xlabels" font-size="2.82" font-family="'PT Sans Caption','Helvetica Neue','Helvetica',sans-serif" fill="#6C606B" id="img-03e623eb-3">
    <g transform="translate(21.63,61.72)">
      <g class="primitive">
        <text text-anchor="middle" dy="0.6em">0</text>
      </g>
    </g>
    <g transform="translate(43.91,61.72)">
      <g class="primitive">
        <text text-anchor="middle" dy="0.6em">100</text>
      </g>
    </g>
    <g transform="translate(66.18,61.72)">
      <g class="primitive">
        <text text-anchor="middle" dy="0.6em">200</text>
      </g>
    </g>
    <g transform="translate(88.45,61.72)">
      <g class="primitive">
        <text text-anchor="middle" dy="0.6em">300</text>
      </g>
    </g>
    <g transform="translate(110.73,61.72)">
      <g class="primitive">
        <text text-anchor="middle" dy="0.6em">400</text>
      </g>
    </g>
    <g transform="translate(133,61.72)">
      <g class="primitive">
        <text text-anchor="middle" dy="0.6em">500</text>
      </g>
    </g>
  </g>
  <g clip-path="url(#img-03e623eb-4)">
    <g id="img-03e623eb-5">
      <g pointer-events="visible" fill="#000000" fill-opacity="0.000" stroke="#000000" stroke-opacity="0.000" class="guide background" id="img-03e623eb-6">
        <g transform="translate(77.32,35.66)" id="img-03e623eb-7">
          <path d="M-57.68,-25.05 L 57.68 -25.05 57.68 25.05 -57.68 25.05 z" class="primitive"/>
        </g>
      </g>
      <g class="guide ygridlines xfixed" stroke-dasharray="0.5,0.5" stroke-width="0.2" stroke="#D0D0E0" id="img-03e623eb-8">
        <g transform="translate(77.32,58.71)" id="img-03e623eb-9">
          <path fill="none" d="M-57.68,0 L 57.68 0" class="primitive"/>
        </g>
        <g transform="translate(77.32,51.03)" id="img-03e623eb-10">
          <path fill="none" d="M-57.68,0 L 57.68 0" class="primitive"/>
        </g>
        <g transform="translate(77.32,43.35)" id="img-03e623eb-11">
          <path fill="none" d="M-57.68,0 L 57.68 0" class="primitive"/>
        </g>
        <g transform="translate(77.32,35.66)" id="img-03e623eb-12">
          <path fill="none" d="M-57.68,0 L 57.68 0" class="primitive"/>
        </g>
        <g transform="translate(77.32,27.98)" id="img-03e623eb-13">
          <path fill="none" d="M-57.68,0 L 57.68 0" class="primitive"/>
        </g>
        <g transform="translate(77.32,20.3)" id="img-03e623eb-14">
          <path fill="none" d="M-57.68,0 L 57.68 0" class="primitive"/>
        </g>
        <g transform="translate(77.32,12.61)" id="img-03e623eb-15">
          <path fill="none" d="M-57.68,0 L 57.68 0" class="primitive"/>
        </g>
      </g>
      <g class="guide xgridlines yfixed" stroke-dasharray="0.5,0.5" stroke-width="0.2" stroke="#D0D0E0" id="img-03e623eb-16">
        <g transform="translate(21.63,35.66)" id="img-03e623eb-17">
          <path fill="none" d="M0,-25.05 L 0 25.05" class="primitive"/>
        </g>
        <g transform="translate(43.91,35.66)" id="img-03e623eb-18">
          <path fill="none" d="M0,-25.05 L 0 25.05" class="primitive"/>
        </g>
        <g transform="translate(66.18,35.66)" id="img-03e623eb-19">
          <path fill="none" d="M0,-25.05 L 0 25.05" class="primitive"/>
        </g>
        <g transform="translate(88.45,35.66)" id="img-03e623eb-20">
          <path fill="none" d="M0,-25.05 L 0 25.05" class="primitive"/>
        </g>
        <g transform="translate(110.73,35.66)" id="img-03e623eb-21">
          <path fill="none" d="M0,-25.05 L 0 25.05" class="primitive"/>
        </g>
        <g transform="translate(133,35.66)" id="img-03e623eb-22">
          <path fill="none" d="M0,-25.05 L 0 25.05" class="primitive"/>
        </g>
      </g>
      <g class="plotpanel" id="img-03e623eb-23">
        <metadata>
          <boundingbox value="19.63166666666666mm 10.611666666666665mm 115.36833333333334mm 50.10333333333334mm"/>
          <unitbox value="-8.979213121623442 102.60284867327019 517.9584262432469 -65.20569734654039"/>
        </metadata>
        <g stroke-width="0.3" fill="#000000" fill-opacity="0.000" class="geometry" id="img-03e623eb-24">
          <g class="color_LCHab{Float32}(70.0f0,60.0f0,240.0f0)" stroke-dasharray="none" stroke="#00BFFF" id="img-03e623eb-25">
            <g transform="translate(71.97,14.62)" id="img-03e623eb-26">
              <path fill="none" d="M-50.12,42.02 L -49.89 28.21 -49.67 24.76 -49.45 19.57 -49.22 16.12 -49 15.26 -48.78 14.83 -48.56 13.96 -48.33 11.37 -48.11 10.08 -47.89 7.06 -47.67 6.62 -47.44 6.62 -47.22 6.19 -47 5.76 -46.77 5.33 -46.55 5.33 -46.33 5.33 -46.11 4.9 -45.88 4.9 -45.66 5.33 -45.44 4.9 -45.22 4.9 -44.99 4.9 -44.77 4.47 -44.55 4.47 -44.32 4.03 -44.1 4.03 -43.88 4.03 -43.66 4.03 -43.43 4.03 -43.21 4.03 -42.99 4.03 -42.77 4.03 -42.54 4.03 -42.32 4.03 -42.1 4.03 -41.87 3.6 -41.65 3.17 -41.43 3.17 -41.21 3.17 -40.98 2.74 -40.76 2.74 -40.54 2.74 -40.32 2.74 -40.09 2.74 -39.87 2.74 -39.65 2.74 -39.42 2.74 -39.2 2.74 -38.98 2.31 -38.76 1.88 -38.53 1.88 -38.31 1.88 -38.09 1.88 -37.87 1.88 -37.64 1.44 -37.42 1.44 -37.2 1.01 -36.97 1.01 -36.75 1.01 -36.53 1.01 -36.31 1.01 -36.08 1.01 -35.86 1.01 -35.64 1.01 -35.42 1.01 -35.19 1.01 -34.97 1.01 -34.75 1.01 -34.52 1.01 -34.3 1.01 -34.08 1.01 -33.86 1.01 -33.63 1.01 -33.41 1.01 -33.19 1.01 -32.97 1.01 -32.74 1.01 -32.52 1.01 -32.3 1.01 -32.07 1.01 -31.85 1.01 -31.63 1.01 -31.41 1.01 -31.18 1.01 -30.96 1.01 -30.74 1.01 -30.51 1.01 -30.29 1.01 -30.07 1.01 -29.85 1.01 -29.62 1.01 -29.4 1.01 -29.18 1.01 -28.96 1.01 -28.73 1.01 -28.51 1.01 -28.29 1.01 -28.06 1.01 -27.84 1.01 -27.62 1.01 -27.4 1.01 -27.17 1.01 -26.95 1.01 -26.73 1.01 -26.51 1.01 -26.28 1.01 -26.06 1.01 -25.84 1.01 -25.61 0.58 -25.39 0.58 -25.17 0.58 -24.95 0.58 -24.72 0.58 -24.5 0.15 -24.28 0.15 -24.06 0.15 -23.83 0.15 -23.61 0.15 -23.39 0.15 -23.16 0.15 -22.94 0.15 -22.72 0.15 -22.5 0.15 -22.27 0.15 -22.05 0.15 -21.83 0.15 -21.61 0.15 -21.38 0.15 -21.16 0.15 -20.94 0.15 -20.71 0.15 -20.49 0.15 -20.27 0.15 -20.05 0.15 -19.82 0.15 -19.6 0.15 -19.38 0.15 -19.16 0.15 -18.93 0.15 -18.71 0.15 -18.49 0.15 -18.26 0.15 -18.04 -0.28 -17.82 -0.28 -17.6 -0.28 -17.37 -0.28 -17.15 -0.28 -16.93 -0.28 -16.71 -0.28 -16.48 -0.71 -16.26 -0.71 -16.04 -0.71 -15.81 -0.71 -15.59 -0.71 -15.37 -0.71 -15.15 -0.71 -14.92 -0.71 -14.7 -0.71 -14.48 -0.71 -14.26 -0.71 -14.03 -0.71 -13.81 -0.71 -13.59 -0.71 -13.36 -0.71 -13.14 -0.71 -12.92 -0.71 -12.7 -0.71 -12.47 -0.71 -12.25 -0.71 -12.03 -0.71 -11.81 -0.71 -11.58 -0.71 -11.36 -0.71 -11.14 -0.71 -10.91 -0.71 -10.69 -0.71 -10.47 -0.71 -10.25 -0.71 -10.02 -0.71 -9.8 -0.71 -9.58 -0.71 -9.35 -0.71 -9.13 -0.71 -8.91 -0.71 -8.69 -0.71 -8.46 -0.71 -8.24 -0.71 -8.02 -0.71 -7.8 -0.71 -7.57 -0.71 -7.35 -0.71 -7.13 -0.71 -6.9 -0.71 -6.68 -0.71 -6.46 -0.71 -6.24 -0.71 -6.01 -0.71 -5.79 -0.71 -5.57 -0.71 -5.35 -0.71 -5.12 -0.71 -4.9 -0.71 -4.68 -0.71 -4.45 -0.71 -4.23 -0.71 -4.01 -0.71 -3.79 -0.71 -3.56 -0.71 -3.34 -0.71 -3.12 -0.71 -2.9 -0.71 -2.67 -0.71 -2.45 -0.71 -2.23 -0.71 -2 -0.71 -1.78 -0.71 -1.56 -0.71 -1.34 -0.71 -1.11 -0.71 -0.89 -0.71 -0.67 -0.71 -0.45 -0.71 -0.22 -0.71 -0 -1.15 0.22 -1.58 0.45 -1.58 0.67 -1.58 0.89 -1.58 1.11 -1.58 1.34 -1.58 1.56 -1.58 1.78 -1.58 2 -1.58 2.23 -1.58 2.45 -1.58 2.67 -1.58 2.9 -1.58 3.12 -1.58 3.34 -1.58 3.56 -1.58 3.79 -1.58 4.01 -1.58 4.23 -1.58 4.45 -1.58 4.68 -1.58 4.9 -1.58 5.12 -1.58 5.35 -1.58 5.57 -1.58 5.79 -1.58 6.01 -1.58 6.24 -1.58 6.46 -1.58 6.68 -1.58 6.9 -1.58 7.13 -1.58 7.35 -1.58 7.57 -1.58 7.8 -1.58 8.02 -1.58 8.24 -1.58 8.46 -1.58 8.69 -1.58 8.91 -1.58 9.13 -1.58 9.35 -1.58 9.58 -1.58 9.8 -1.58 10.02 -1.58 10.25 -1.58 10.47 -1.58 10.69 -1.58 10.91 -1.58 11.14 -1.58 11.36 -1.58 11.58 -1.58 11.81 -1.58 12.03 -1.58 12.25 -1.58 12.47 -1.58 12.7 -1.58 12.92 -1.58 13.14 -1.58 13.36 -1.58 13.59 -1.58 13.81 -1.58 14.03 -1.58 14.26 -1.58 14.48 -1.58 14.7 -1.58 14.92 -1.58 15.15 -1.58 15.37 -1.58 15.59 -1.58 15.81 -1.58 16.04 -1.58 16.26 -1.58 16.48 -1.58 16.71 -1.58 16.93 -1.58 17.15 -1.58 17.37 -1.58 17.6 -1.58 17.82 -1.58 18.04 -1.58 18.26 -1.58 18.49 -1.58 18.71 -1.58 18.93 -1.58 19.16 -1.58 19.38 -1.58 19.6 -1.58 19.82 -1.58 20.05 -1.58 20.27 -1.58 20.49 -1.58 20.71 -1.58 20.94 -1.58 21.16 -1.58 21.38 -1.58 21.61 -1.58 21.83 -1.58 22.05 -1.58 22.27 -1.58 22.5 -1.58 22.72 -1.58 22.94 -1.58 23.16 -1.58 23.39 -1.58 23.61 -1.58 23.83 -1.58 24.06 -1.58 24.28 -1.58 24.5 -1.58 24.72 -1.58 24.95 -1.58 25.17 -1.58 25.39 -1.58 25.61 -1.58 25.84 -1.58 26.06 -1.58 26.28 -1.58 26.51 -1.58 26.73 -1.58 26.95 -1.58 27.17 -1.58 27.4 -1.58 27.62 -1.58 27.84 -1.58 28.06 -1.58 28.29 -1.58 28.51 -1.58 28.73 -1.58 28.96 -1.58 29.18 -1.58 29.4 -1.58 29.62 -1.58 29.85 -1.58 30.07 -1.58 30.29 -1.58 30.51 -1.58 30.74 -1.58 30.96 -1.58 31.18 -1.58 31.41 -1.58 31.63 -1.58 31.85 -1.58 32.07 -1.58 32.3 -1.58 32.52 -1.58 32.74 -1.58 32.97 -1.58 33.19 -1.58 33.41 -1.58 33.63 -1.58 33.86 -1.58 34.08 -1.58 34.3 -1.58 34.52 -1.58 34.75 -1.58 34.97 -1.58 35.19 -1.58 35.42 -2.01 35.64 -2.01 35.86 -2.01 36.08 -2.01 36.31 -2.01 36.53 -2.01 36.75 -2.01 36.97 -2.01 37.2 -2.01 37.42 -2.01 37.64 -2.01 37.87 -2.01 38.09 -2.01 38.31 -2.01 38.53 -2.01 38.76 -2.01 38.98 -2.01 39.2 -2.01 39.42 -2.01 39.65 -2.01 39.87 -2.01 40.09 -2.01 40.32 -2.01 40.54 -2.01 40.76 -2.01 40.98 -2.01 41.21 -2.01 41.43 -2.01 41.65 -2.01 41.87 -2.01 42.1 -2.01 42.32 -2.01 42.54 -2.01 42.77 -2.01 42.99 -2.01 43.21 -2.01 43.43 -2.01 43.66 -2.01 43.88 -2.01 44.1 -2.01 44.32 -2.01 44.55 -2.01 44.77 -2.01 44.99 -2.01 45.22 -2.01 45.44 -2.01 45.66 -2.01 45.88 -2.01 46.11 -2.01 46.33 -2.01 46.55 -2.01 46.77 -2.01 47 -2.01 47.22 -2.01 47.44 -2.01 47.67 -2.01 47.89 -2.01 48.11 -2.01 48.33 -2.01 48.56 -2.01 48.78 -2.01 49 -2.01 49.22 -2.01 49.45 -2.01 49.67 -2.01 49.89 -2.01 50.12 -2.01" class="primitive"/>
            </g>
          </g>
        </g>
      </g>
    </g>
  </g>
  <g class="guide ylabels" font-size="2.82" font-family="'PT Sans Caption','Helvetica Neue','Helvetica',sans-serif" fill="#6C606B" id="img-03e623eb-27">
    <g transform="translate(18.63,58.71)" id="img-03e623eb-28">
      <g class="primitive">
        <text text-anchor="end" dy="0.35em">40</text>
      </g>
    </g>
    <g transform="translate(18.63,51.03)" id="img-03e623eb-29">
      <g class="primitive">
        <text text-anchor="end" dy="0.35em">50</text>
      </g>
    </g>
    <g transform="translate(18.63,43.35)" id="img-03e623eb-30">
      <g class="primitive">
        <text text-anchor="end" dy="0.35em">60</text>
      </g>
    </g>
    <g transform="translate(18.63,35.66)" id="img-03e623eb-31">
      <g class="primitive">
        <text text-anchor="end" dy="0.35em">70</text>
      </g>
    </g>
    <g transform="translate(18.63,27.98)" id="img-03e623eb-32">
      <g class="primitive">
        <text text-anchor="end" dy="0.35em">80</text>
      </g>
    </g>
    <g transform="translate(18.63,20.3)" id="img-03e623eb-33">
      <g class="primitive">
        <text text-anchor="end" dy="0.35em">90</text>
      </g>
    </g>
    <g transform="translate(18.63,12.61)" id="img-03e623eb-34">
      <g class="primitive">
        <text text-anchor="end" dy="0.35em">100</text>
      </g>
    </g>
  </g>
  <g font-size="3.88" font-family="'PT Sans','Helvetica Neue','Helvetica',sans-serif" fill="#564A55" stroke="#000000" stroke-opacity="0.000" id="img-03e623eb-35">
    <g transform="translate(8.81,33.66)" id="img-03e623eb-36">
      <g class="primitive">
        <text text-anchor="middle" dy="0.35em" transform="rotate(-90,0, 2)">Accuracy</text>
      </g>
    </g>
  </g>
  <g font-size="3.88" font-family="'PT Sans','Helvetica Neue','Helvetica',sans-serif" fill="#564A55" stroke="#000000" stroke-opacity="0.000" id="img-03e623eb-37">
    <g transform="translate(77.32,5)" id="img-03e623eb-38">
      <g class="primitive">
        <text text-anchor="middle" dy="0.6em">MersenneTwister(1024)</text>
      </g>
    </g>
  </g>
</g>
<defs>
  <clipPath id="img-03e623eb-4">
    <path d="M19.63,10.61 L 135 10.61 135 60.72 19.63 60.72" />
  </clipPath>
</defs>
</svg>
