<?xml version="1.0" encoding="UTF-8"?>
<svg xmlns="http://www.w3.org/2000/svg"
     xmlns:xlink="http://www.w3.org/1999/xlink"
     xmlns:gadfly="http://www.gadflyjl.org/ns"
     version="1.2"
     width="140mm" height="80mm" viewBox="0 0 140 80"
     stroke="none"
     fill="#000000"
     stroke-width="0.3"
     font-size="3.88"
>
<defs>
  <marker id="arrow" markerWidth="15" markerHeight="7" refX="5" refY="3.5" orient="auto" markerUnits="strokeWidth">
    <path d="M0,0 L15,3.5 L0,7 z" stroke="context-stroke" fill="context-stroke"/>
  </marker>
</defs>
<g class="plotroot xscalable yscalable" id="img-7abf23a7-1">
  <g font-size="3.88" font-family="'PT Sans','Helvetica Neue','Helvetica',sans-serif" fill="#564A55" stroke="#000000" stroke-opacity="0.000" id="img-7abf23a7-2">
    <g transform="translate(77.32,68.39)">
      <g class="primitive">
        <text text-anchor="middle" dy="0.6em">Every 10th Epoch</text>
      </g>
    </g>
  </g>
  <g class="guide xlabels" font-size="2.82" font-family="'PT Sans Caption','Helvetica Neue','Helvetica',sans-serif" fill="#6C606B" id="img-7abf23a7-3">
    <g transform="translate(21.63,61.72)">
      <g class="primitive">
        <text text-anchor="middle" dy="0.6em">0</text>
      </g>
    </g>
    <g transform="translate(43.91,61.72)">
      <g class="primitive">
        <text text-anchor="middle" dy="0.6em">100</text>
      </g>
    </g>
    <g transform="translate(66.18,61.72)">
      <g class="primitive">
        <text text-anchor="middle" dy="0.6em">200</text>
      </g>
    </g>
    <g transform="translate(88.45,61.72)">
      <g class="primitive">
        <text text-anchor="middle" dy="0.6em">300</text>
      </g>
    </g>
    <g transform="translate(110.73,61.72)">
      <g class="primitive">
        <text text-anchor="middle" dy="0.6em">400</text>
      </g>
    </g>
    <g transform="translate(133,61.72)">
      <g class="primitive">
        <text text-anchor="middle" dy="0.6em">500</text>
      </g>
    </g>
  </g>
  <g clip-path="url(#img-7abf23a7-4)">
    <g id="img-7abf23a7-5">
      <g pointer-events="visible" fill="#000000" fill-opacity="0.000" stroke="#000000" stroke-opacity="0.000" class="guide background" id="img-7abf23a7-6">
        <g transform="translate(77.32,35.66)" id="img-7abf23a7-7">
          <path d="M-57.68,-25.05 L 57.68 -25.05 57.68 25.05 -57.68 25.05 z" class="primitive"/>
        </g>
      </g>
      <g class="guide ygridlines xfixed" stroke-dasharray="0.5,0.5" stroke-width="0.2" stroke="#D0D0E0" id="img-7abf23a7-8">
        <g transform="translate(77.32,58.72)" id="img-7abf23a7-9">
          <path fill="none" d="M-57.68,0 L 57.68 0" class="primitive"/>
        </g>
        <g transform="translate(77.32,35.66)" id="img-7abf23a7-10">
          <path fill="none" d="M-57.68,0 L 57.68 0" class="primitive"/>
        </g>
        <g transform="translate(77.32,12.61)" id="img-7abf23a7-11">
          <path fill="none" d="M-57.68,0 L 57.68 0" class="primitive"/>
        </g>
      </g>
      <g class="guide xgridlines yfixed" stroke-dasharray="0.5,0.5" stroke-width="0.2" stroke="#D0D0E0" id="img-7abf23a7-12">
        <g transform="translate(21.63,35.66)" id="img-7abf23a7-13">
          <path fill="none" d="M0,-25.05 L 0 25.05" class="primitive"/>
        </g>
        <g transform="translate(43.91,35.66)" id="img-7abf23a7-14">
          <path fill="none" d="M0,-25.05 L 0 25.05" class="primitive"/>
        </g>
        <g transform="translate(66.18,35.66)" id="img-7abf23a7-15">
          <path fill="none" d="M0,-25.05 L 0 25.05" class="primitive"/>
        </g>
        <g transform="translate(88.45,35.66)" id="img-7abf23a7-16">
          <path fill="none" d="M0,-25.05 L 0 25.05" class="primitive"/>
        </g>
        <g transform="translate(110.73,35.66)" id="img-7abf23a7-17">
          <path fill="none" d="M0,-25.05 L 0 25.05" class="primitive"/>
        </g>
        <g transform="translate(133,35.66)" id="img-7abf23a7-18">
          <path fill="none" d="M0,-25.05 L 0 25.05" class="primitive"/>
        </g>
      </g>
      <g class="plotpanel" id="img-7abf23a7-19">
        <metadata>
          <boundingbox value="19.631666666666675mm 10.611666666666665mm 115.36833333333333mm 50.10333333333334mm"/>
          <unitbox value="-8.979213121623443 104.33808112211699 517.9584262432469 -108.67616224423398"/>
        </metadata>
        <g stroke-width="0.3" fill="#000000" fill-opacity="0.000" class="geometry" id="img-7abf23a7-20">
          <g class="color_LCHab{Float32}(70.0f0,60.0f0,240.0f0)" stroke-dasharray="none" stroke="#00BFFF" id="img-7abf23a7-21">
            <g transform="translate(71.97,16.35)" id="img-7abf23a7-22">
              <path fill="none" d="M-50.12,34.08 L -49.89 30.71 -49.67 13.36 -49.45 12.32 -49.22 11.03 -49 11.03 -48.78 10.51 -48.56 8.96 -48.33 8.7 -48.11 8.7 -47.89 8.44 -47.67 8.18 -47.44 7.66 -47.22 7.14 -47 7.4 -46.77 6.89 -46.55 5.59 -46.33 6.89 -46.11 6.63 -45.88 6.63 -45.66 5.07 -45.44 5.33 -45.22 5.33 -44.99 5.33 -44.77 5.33 -44.55 5.33 -44.32 5.33 -44.1 5.07 -43.88 5.07 -43.66 4.55 -43.43 4.04 -43.21 3.78 -42.99 3.78 -42.77 3.78 -42.54 3.78 -42.32 3.78 -42.1 3.78 -41.87 3.78 -41.65 3.78 -41.43 3.78 -41.21 3.78 -40.98 3.78 -40.76 3.78 -40.54 3.78 -40.32 3.78 -40.09 3.78 -39.87 3.78 -39.65 3.78 -39.42 3.78 -39.2 3.52 -38.98 3.26 -38.76 3.26 -38.53 3.26 -38.31 3.26 -38.09 3.26 -37.87 3.26 -37.64 3.26 -37.42 3.26 -37.2 3 -36.97 3 -36.75 3 -36.53 3 -36.31 2.74 -36.08 2.74 -35.86 2.48 -35.64 2.48 -35.42 2.22 -35.19 2.22 -34.97 2.22 -34.75 2.22 -34.52 2.22 -34.3 2.74 -34.08 2.22 -33.86 2.22 -33.63 2.22 -33.41 2.22 -33.19 2.22 -32.97 1.96 -32.74 1.96 -32.52 1.96 -32.3 1.96 -32.07 1.96 -31.85 1.71 -31.63 1.71 -31.41 1.71 -31.18 1.71 -30.96 1.71 -30.74 1.71 -30.51 1.71 -30.29 1.71 -30.07 1.71 -29.85 1.71 -29.62 1.45 -29.4 1.45 -29.18 1.71 -28.96 1.45 -28.73 1.45 -28.51 1.19 -28.29 1.19 -28.06 1.19 -27.84 1.19 -27.62 1.19 -27.4 1.19 -27.17 1.19 -26.95 1.19 -26.73 1.19 -26.51 0.93 -26.28 0.67 -26.06 0.67 -25.84 0.67 -25.61 0.67 -25.39 0.67 -25.17 0.67 -24.95 0.67 -24.72 0.67 -24.5 0.67 -24.28 0.67 -24.06 0.67 -23.83 0.67 -23.61 0.67 -23.39 0.67 -23.16 0.67 -22.94 0.67 -22.72 0.41 -22.5 0.41 -22.27 0.41 -22.05 0.41 -21.83 0.41 -21.61 0.41 -21.38 0.41 -21.16 0.41 -20.94 0.41 -20.71 0.41 -20.49 0.41 -20.27 0.41 -20.05 0.41 -19.82 0.41 -19.6 0.41 -19.38 0.41 -19.16 0.41 -18.93 0.41 -18.71 0.41 -18.49 0.41 -18.26 0.41 -18.04 0.41 -17.82 0.15 -17.6 0.15 -17.37 0.15 -17.15 0.15 -16.93 0.15 -16.71 0.15 -16.48 0.15 -16.26 0.15 -16.04 0.15 -15.81 0.15 -15.59 -0.11 -15.37 -0.11 -15.15 -0.11 -14.92 -0.11 -14.7 -0.11 -14.48 -0.11 -14.26 -0.11 -14.03 -0.11 -13.81 -0.11 -13.59 -0.11 -13.36 -0.11 -13.14 0.15 -12.92 0.15 -12.7 0.15 -12.47 -0.11 -12.25 -0.11 -12.03 -0.11 -11.81 -0.37 -11.58 -0.37 -11.36 -0.37 -11.14 -0.37 -10.91 -0.37 -10.69 -0.37 -10.47 -0.37 -10.25 -0.63 -10.02 -0.63 -9.8 -0.63 -9.58 -0.63 -9.35 -0.63 -9.13 -0.63 -8.91 -0.63 -8.69 -0.63 -8.46 -0.63 -8.24 -0.63 -8.02 -0.63 -7.8 -0.63 -7.57 -0.63 -7.35 -0.63 -7.13 -0.63 -6.9 -0.63 -6.68 -0.63 -6.46 -0.88 -6.24 -0.88 -6.01 -0.88 -5.79 -0.88 -5.57 -0.88 -5.35 -0.88 -5.12 -0.88 -4.9 -0.88 -4.68 -0.88 -4.45 -0.88 -4.23 -0.88 -4.01 -0.88 -3.79 -0.88 -3.56 -0.88 -3.34 -0.88 -3.12 -0.88 -2.9 -0.88 -2.67 -0.88 -2.45 -0.88 -2.23 -0.88 -2 -0.88 -1.78 -0.88 -1.56 -0.88 -1.34 -0.88 -1.11 -0.88 -0.89 -0.88 -0.67 -0.88 -0.45 -0.88 -0.22 -0.88 -0 -0.88 0.22 -0.88 0.45 -0.88 0.67 -0.88 0.89 -0.88 1.11 -0.88 1.34 -0.88 1.56 -0.88 1.78 -0.88 2 -0.88 2.23 -0.88 2.45 -0.88 2.67 -0.88 2.9 -0.88 3.12 -0.88 3.34 -0.88 3.56 -0.88 3.79 -0.88 4.01 -0.88 4.23 -0.88 4.45 -0.88 4.68 -0.88 4.9 -0.88 5.12 -0.88 5.35 -0.88 5.57 -0.88 5.79 -0.88 6.01 -0.88 6.24 -0.88 6.46 -0.88 6.68 -1.14 6.9 -1.14 7.13 -1.14 7.35 -1.14 7.57 -1.14 7.8 -1.14 8.02 -1.14 8.24 -1.14 8.46 -1.14 8.69 -1.14 8.91 -1.14 9.13 -1.14 9.35 -1.14 9.58 -1.14 9.8 -1.14 10.02 -1.14 10.25 -1.14 10.47 -1.14 10.69 -1.14 10.91 -1.14 11.14 -1.14 11.36 -1.14 11.58 -1.14 11.81 -1.14 12.03 -1.14 12.25 -1.14 12.47 -1.14 12.7 -1.14 12.92 -1.14 13.14 -1.14 13.36 -1.14 13.59 -1.14 13.81 -1.14 14.03 -1.14 14.26 -1.92 14.48 -1.92 14.7 -1.66 14.92 -1.66 15.15 -1.66 15.37 -1.66 15.59 -1.66 15.81 -1.92 16.04 -1.92 16.26 -1.92 16.48 -1.66 16.71 -1.66 16.93 -1.66 17.15 -1.66 17.37 -1.66 17.6 -1.66 17.82 -1.66 18.04 -1.4 18.26 -1.4 18.49 -1.66 18.71 -1.66 18.93 -1.66 19.16 -1.66 19.38 -1.66 19.6 -1.66 19.82 -1.66 20.05 -1.66 20.27 -1.66 20.49 -1.66 20.71 -1.66 20.94 -1.66 21.16 -1.66 21.38 -1.66 21.61 -1.66 21.83 -1.92 22.05 -1.66 22.27 -1.66 22.5 -1.66 22.72 -1.66 22.94 -1.66 23.16 -1.66 23.39 -1.66 23.61 -1.66 23.83 -1.92 24.06 -1.92 24.28 -1.92 24.5 -1.92 24.72 -1.92 24.95 -1.92 25.17 -1.92 25.39 -2.18 25.61 -2.18 25.84 -2.18 26.06 -2.18 26.28 -2.18 26.51 -2.18 26.73 -2.18 26.95 -2.18 27.17 -2.18 27.4 -2.44 27.62 -2.44 27.84 -2.44 28.06 -2.44 28.29 -2.44 28.51 -2.44 28.73 -2.44 28.96 -2.44 29.18 -2.44 29.4 -2.7 29.62 -2.7 29.85 -2.7 30.07 -2.7 30.29 -2.7 30.51 -2.7 30.74 -2.7 30.96 -2.7 31.18 -2.7 31.41 -2.7 31.63 -2.7 31.85 -2.7 32.07 -2.7 32.3 -2.7 32.52 -2.7 32.74 -2.7 32.97 -2.7 33.19 -2.7 33.41 -2.7 33.63 -2.7 33.86 -2.7 34.08 -2.7 34.3 -2.7 34.52 -2.7 34.75 -2.7 34.97 -2.7 35.19 -2.7 35.42 -2.7 35.64 -2.7 35.86 -2.7 36.08 -2.7 36.31 -2.7 36.53 -2.7 36.75 -2.7 36.97 -2.7 37.2 -2.7 37.42 -2.7 37.64 -2.7 37.87 -2.7 38.09 -2.7 38.31 -2.7 38.53 -2.7 38.76 -2.7 38.98 -2.7 39.2 -2.7 39.42 -2.7 39.65 -2.7 39.87 -2.7 40.09 -2.7 40.32 -2.7 40.54 -2.7 40.76 -2.7 40.98 -2.7 41.21 -2.7 41.43 -2.7 41.65 -2.7 41.87 -2.7 42.1 -2.7 42.32 -2.7 42.54 -2.7 42.77 -2.7 42.99 -2.7 43.21 -2.7 43.43 -2.7 43.66 -2.7 43.88 -2.7 44.1 -2.96 44.32 -2.96 44.55 -2.96 44.77 -2.96 44.99 -2.96 45.22 -2.96 45.44 -2.96 45.66 -2.96 45.88 -2.96 46.11 -2.7 46.33 -2.7 46.55 -2.7 46.77 -2.7 47 -2.7 47.22 -2.7 47.44 -2.7 47.67 -2.7 47.89 -2.7 48.11 -2.7 48.33 -2.7 48.56 -2.7 48.78 -2.7 49 -2.7 49.22 -2.7 49.45 -2.7 49.67 -2.7 49.89 -2.7 50.12 -2.7" class="primitive"/>
            </g>
          </g>
        </g>
      </g>
    </g>
  </g>
  <g class="guide ylabels" font-size="2.82" font-family="'PT Sans Caption','Helvetica Neue','Helvetica',sans-serif" fill="#6C606B" id="img-7abf23a7-23">
    <g transform="translate(18.63,58.72)" id="img-7abf23a7-24">
      <g class="primitive">
        <text text-anchor="end" dy="0.35em">0</text>
      </g>
    </g>
    <g transform="translate(18.63,35.66)" id="img-7abf23a7-25">
      <g class="primitive">
        <text text-anchor="end" dy="0.35em">50</text>
      </g>
    </g>
    <g transform="translate(18.63,12.61)" id="img-7abf23a7-26">
      <g class="primitive">
        <text text-anchor="end" dy="0.35em">100</text>
      </g>
    </g>
  </g>
  <g font-size="3.88" font-family="'PT Sans','Helvetica Neue','Helvetica',sans-serif" fill="#564A55" stroke="#000000" stroke-opacity="0.000" id="img-7abf23a7-27">
    <g transform="translate(8.81,33.66)" id="img-7abf23a7-28">
      <g class="primitive">
        <text text-anchor="middle" dy="0.35em" transform="rotate(-90,0, 2)">Accuracy</text>
      </g>
    </g>
  </g>
  <g font-size="3.88" font-family="'PT Sans','Helvetica Neue','Helvetica',sans-serif" fill="#564A55" stroke="#000000" stroke-opacity="0.000" id="img-7abf23a7-29">
    <g transform="translate(77.32,5)" id="img-7abf23a7-30">
      <g class="primitive">
        <text text-anchor="middle" dy="0.6em">MersenneTwister(16)</text>
      </g>
    </g>
  </g>
</g>
<defs>
  <clipPath id="img-7abf23a7-4">
    <path d="M19.63,10.61 L 135 10.61 135 60.72 19.63 60.72" />
  </clipPath>
</defs>
</svg>
