<?xml version="1.0" encoding="UTF-8"?>
<svg xmlns="http://www.w3.org/2000/svg"
     xmlns:xlink="http://www.w3.org/1999/xlink"
     xmlns:gadfly="http://www.gadflyjl.org/ns"
     version="1.2"
     width="140mm" height="80mm" viewBox="0 0 140 80"
     stroke="none"
     fill="#000000"
     stroke-width="0.3"
     font-size="3.88"
>
<defs>
  <marker id="arrow" markerWidth="15" markerHeight="7" refX="5" refY="3.5" orient="auto" markerUnits="strokeWidth">
    <path d="M0,0 L15,3.5 L0,7 z" stroke="context-stroke" fill="context-stroke"/>
  </marker>
</defs>
<g class="plotroot xscalable yscalable" id="img-cbc32d59-1">
  <g font-size="3.88" font-family="'PT Sans','Helvetica Neue','Helvetica',sans-serif" fill="#564A55" stroke="#000000" stroke-opacity="0.000" id="img-cbc32d59-2">
    <g transform="translate(77.32,68.39)">
      <g class="primitive">
        <text text-anchor="middle" dy="0.6em">Every 10th Epoch</text>
      </g>
    </g>
  </g>
  <g class="guide xlabels" font-size="2.82" font-family="'PT Sans Caption','Helvetica Neue','Helvetica',sans-serif" fill="#6C606B" id="img-cbc32d59-3">
    <g transform="translate(21.63,61.72)">
      <g class="primitive">
        <text text-anchor="middle" dy="0.6em">0</text>
      </g>
    </g>
    <g transform="translate(43.91,61.72)">
      <g class="primitive">
        <text text-anchor="middle" dy="0.6em">100</text>
      </g>
    </g>
    <g transform="translate(66.18,61.72)">
      <g class="primitive">
        <text text-anchor="middle" dy="0.6em">200</text>
      </g>
    </g>
    <g transform="translate(88.45,61.72)">
      <g class="primitive">
        <text text-anchor="middle" dy="0.6em">300</text>
      </g>
    </g>
    <g transform="translate(110.73,61.72)">
      <g class="primitive">
        <text text-anchor="middle" dy="0.6em">400</text>
      </g>
    </g>
    <g transform="translate(133,61.72)">
      <g class="primitive">
        <text text-anchor="middle" dy="0.6em">500</text>
      </g>
    </g>
  </g>
  <g clip-path="url(#img-cbc32d59-4)">
    <g id="img-cbc32d59-5">
      <g pointer-events="visible" fill="#000000" fill-opacity="0.000" stroke="#000000" stroke-opacity="0.000" class="guide background" id="img-cbc32d59-6">
        <g transform="translate(77.32,35.66)" id="img-cbc32d59-7">
          <path d="M-57.68,-25.05 L 57.68 -25.05 57.68 25.05 -57.68 25.05 z" class="primitive"/>
        </g>
      </g>
      <g class="guide ygridlines xfixed" stroke-dasharray="0.5,0.5" stroke-width="0.2" stroke="#D0D0E0" id="img-cbc32d59-8">
        <g transform="translate(77.32,58.72)" id="img-cbc32d59-9">
          <path fill="none" d="M-57.68,0 L 57.68 0" class="primitive"/>
        </g>
        <g transform="translate(77.32,49.49)" id="img-cbc32d59-10">
          <path fill="none" d="M-57.68,0 L 57.68 0" class="primitive"/>
        </g>
        <g transform="translate(77.32,40.27)" id="img-cbc32d59-11">
          <path fill="none" d="M-57.68,0 L 57.68 0" class="primitive"/>
        </g>
        <g transform="translate(77.32,31.05)" id="img-cbc32d59-12">
          <path fill="none" d="M-57.68,0 L 57.68 0" class="primitive"/>
        </g>
        <g transform="translate(77.32,21.83)" id="img-cbc32d59-13">
          <path fill="none" d="M-57.68,0 L 57.68 0" class="primitive"/>
        </g>
        <g transform="translate(77.32,12.61)" id="img-cbc32d59-14">
          <path fill="none" d="M-57.68,0 L 57.68 0" class="primitive"/>
        </g>
      </g>
      <g class="guide xgridlines yfixed" stroke-dasharray="0.5,0.5" stroke-width="0.2" stroke="#D0D0E0" id="img-cbc32d59-15">
        <g transform="translate(21.63,35.66)" id="img-cbc32d59-16">
          <path fill="none" d="M0,-25.05 L 0 25.05" class="primitive"/>
        </g>
        <g transform="translate(43.91,35.66)" id="img-cbc32d59-17">
          <path fill="none" d="M0,-25.05 L 0 25.05" class="primitive"/>
        </g>
        <g transform="translate(66.18,35.66)" id="img-cbc32d59-18">
          <path fill="none" d="M0,-25.05 L 0 25.05" class="primitive"/>
        </g>
        <g transform="translate(88.45,35.66)" id="img-cbc32d59-19">
          <path fill="none" d="M0,-25.05 L 0 25.05" class="primitive"/>
        </g>
        <g transform="translate(110.73,35.66)" id="img-cbc32d59-20">
          <path fill="none" d="M0,-25.05 L 0 25.05" class="primitive"/>
        </g>
        <g transform="translate(133,35.66)" id="img-cbc32d59-21">
          <path fill="none" d="M0,-25.05 L 0 25.05" class="primitive"/>
        </g>
      </g>
      <g class="plotpanel" id="img-cbc32d59-22">
        <metadata>
          <boundingbox value="19.631666666666675mm 10.611666666666665mm 115.36833333333333mm 50.10333333333334mm"/>
          <unitbox value="-8.979213121623443 102.1690405610585 517.9584262432469 -54.33808112211699"/>
        </metadata>
        <g stroke-width="0.3" fill="#000000" fill-opacity="0.000" class="geometry" id="img-cbc32d59-23">
          <g class="color_LCHab{Float32}(70.0f0,60.0f0,240.0f0)" stroke-dasharray="none" stroke="#00BFFF" id="img-cbc32d59-24">
            <g transform="translate(71.97,18.66)" id="img-cbc32d59-25">
              <path fill="none" d="M-50.12,37.47 L -49.89 31.25 -49.67 29.7 -49.45 29.7 -49.22 22.96 -49 19.34 -48.78 14.16 -48.56 10.53 -48.33 10.01 -48.11 9.5 -47.89 9.5 -47.67 9.5 -47.44 9.5 -47.22 9.5 -47 9.5 -46.77 9.5 -46.55 9.5 -46.33 8.98 -46.11 8.98 -45.88 8.98 -45.66 8.98 -45.44 8.98 -45.22 8.98 -44.99 8.46 -44.77 8.46 -44.55 7.94 -44.32 7.94 -44.1 7.94 -43.88 7.94 -43.66 7.94 -43.43 7.94 -43.21 7.94 -42.99 7.94 -42.77 7.94 -42.54 7.94 -42.32 7.94 -42.1 7.94 -41.87 7.42 -41.65 7.42 -41.43 7.42 -41.21 7.42 -40.98 6.39 -40.76 6.39 -40.54 6.39 -40.32 6.39 -40.09 6.39 -39.87 6.39 -39.65 6.39 -39.42 6.39 -39.2 6.39 -38.98 6.39 -38.76 5.87 -38.53 5.87 -38.31 5.87 -38.09 5.87 -37.87 5.87 -37.64 5.87 -37.42 5.87 -37.2 5.87 -36.97 5.35 -36.75 5.35 -36.53 5.35 -36.31 5.35 -36.08 4.32 -35.86 4.32 -35.64 4.32 -35.42 4.32 -35.19 3.8 -34.97 3.8 -34.75 3.8 -34.52 3.8 -34.3 3.8 -34.08 3.8 -33.86 3.8 -33.63 3.8 -33.41 3.8 -33.19 3.8 -32.97 3.8 -32.74 3.8 -32.52 3.8 -32.3 3.8 -32.07 3.8 -31.85 3.8 -31.63 3.8 -31.41 3.8 -31.18 3.8 -30.96 3.28 -30.74 3.28 -30.51 3.28 -30.29 3.28 -30.07 3.28 -29.85 3.28 -29.62 3.28 -29.4 3.28 -29.18 3.28 -28.96 3.28 -28.73 3.28 -28.51 3.28 -28.29 3.28 -28.06 3.28 -27.84 3.8 -27.62 3.8 -27.4 3.28 -27.17 3.28 -26.95 3.28 -26.73 3.28 -26.51 3.28 -26.28 3.28 -26.06 3.28 -25.84 3.28 -25.61 3.28 -25.39 2.76 -25.17 3.28 -24.95 3.28 -24.72 2.76 -24.5 2.76 -24.28 2.24 -24.06 2.24 -23.83 2.24 -23.61 2.24 -23.39 1.73 -23.16 1.73 -22.94 1.73 -22.72 1.73 -22.5 1.21 -22.27 0.69 -22.05 0.69 -21.83 0.69 -21.61 0.17 -21.38 0.17 -21.16 0.17 -20.94 -0.35 -20.71 0.17 -20.49 0.17 -20.27 0.17 -20.05 0.17 -19.82 0.17 -19.6 0.17 -19.38 0.17 -19.16 -0.35 -18.93 -0.35 -18.71 -0.35 -18.49 -0.35 -18.26 -0.35 -18.04 -0.35 -17.82 -0.35 -17.6 -0.35 -17.37 -0.35 -17.15 -0.35 -16.93 -0.35 -16.71 -0.35 -16.48 -0.35 -16.26 -0.86 -16.04 -0.86 -15.81 -0.86 -15.59 -0.86 -15.37 -0.86 -15.15 -0.86 -14.92 -0.86 -14.7 -0.86 -14.48 -0.86 -14.26 -0.86 -14.03 -0.86 -13.81 -0.86 -13.59 -0.86 -13.36 -1.38 -13.14 -1.38 -12.92 -1.38 -12.7 -1.38 -12.47 -1.38 -12.25 -1.38 -12.03 -1.38 -11.81 -1.38 -11.58 -1.38 -11.36 -1.38 -11.14 -1.38 -10.91 -1.38 -10.69 -1.38 -10.47 -1.38 -10.25 -1.38 -10.02 -1.38 -9.8 -1.38 -9.58 -1.38 -9.35 -1.38 -9.13 -1.38 -8.91 -1.38 -8.69 -1.38 -8.46 -1.38 -8.24 -1.38 -8.02 -1.38 -7.8 -1.38 -7.57 -1.38 -7.35 -1.38 -7.13 -1.38 -6.9 -1.38 -6.68 -1.38 -6.46 -1.38 -6.24 -1.38 -6.01 -1.38 -5.79 -1.38 -5.57 -1.38 -5.35 -1.38 -5.12 -1.38 -4.9 -1.38 -4.68 -1.38 -4.45 -1.38 -4.23 -1.38 -4.01 -1.38 -3.79 -1.38 -3.56 -1.38 -3.34 -1.38 -3.12 -1.38 -2.9 -1.38 -2.67 -1.38 -2.45 -1.38 -2.23 -1.38 -2 -1.38 -1.78 -1.9 -1.56 -1.9 -1.34 -1.9 -1.11 -1.9 -0.89 -1.9 -0.67 -1.9 -0.45 -1.9 -0.22 -1.9 -0 -1.9 0.22 -1.9 0.45 -1.9 0.67 -1.9 0.89 -2.42 1.11 -2.42 1.34 -2.42 1.56 -2.42 1.78 -2.42 2 -2.42 2.23 -2.42 2.45 -2.42 2.67 -2.42 2.9 -2.42 3.12 -2.42 3.34 -2.42 3.56 -2.42 3.79 -2.42 4.01 -2.42 4.23 -2.42 4.45 -2.42 4.68 -2.42 4.9 -2.42 5.12 -2.42 5.35 -2.42 5.57 -2.42 5.79 -2.42 6.01 -2.42 6.24 -2.42 6.46 -2.42 6.68 -2.42 6.9 -2.42 7.13 -2.94 7.35 -2.94 7.57 -2.94 7.8 -2.94 8.02 -2.94 8.24 -2.94 8.46 -2.94 8.69 -2.94 8.91 -2.94 9.13 -2.94 9.35 -2.94 9.58 -2.94 9.8 -2.94 10.02 -2.94 10.25 -2.94 10.47 -2.94 10.69 -2.94 10.91 -2.94 11.14 -2.94 11.36 -2.94 11.58 -2.94 11.81 -2.94 12.03 -2.94 12.25 -2.94 12.47 -2.94 12.7 -2.94 12.92 -2.94 13.14 -2.94 13.36 -2.94 13.59 -2.94 13.81 -2.94 14.03 -2.94 14.26 -2.94 14.48 -2.94 14.7 -2.94 14.92 -2.94 15.15 -2.94 15.37 -2.94 15.59 -2.94 15.81 -2.94 16.04 -2.94 16.26 -2.94 16.48 -2.94 16.71 -2.94 16.93 -2.94 17.15 -2.94 17.37 -2.94 17.6 -2.94 17.82 -2.94 18.04 -2.94 18.26 -2.94 18.49 -2.94 18.71 -2.94 18.93 -2.94 19.16 -2.94 19.38 -2.94 19.6 -2.94 19.82 -2.94 20.05 -2.94 20.27 -2.94 20.49 -2.94 20.71 -3.45 20.94 -3.45 21.16 -3.45 21.38 -3.45 21.61 -3.45 21.83 -3.45 22.05 -3.45 22.27 -3.45 22.5 -3.45 22.72 -3.45 22.94 -3.45 23.16 -3.45 23.39 -3.45 23.61 -3.45 23.83 -3.45 24.06 -3.45 24.28 -3.45 24.5 -3.45 24.72 -3.45 24.95 -3.45 25.17 -3.45 25.39 -3.45 25.61 -3.45 25.84 -3.45 26.06 -3.45 26.28 -3.45 26.51 -3.45 26.73 -3.45 26.95 -3.45 27.17 -3.45 27.4 -3.45 27.62 -3.45 27.84 -3.45 28.06 -3.45 28.29 -3.45 28.51 -3.45 28.73 -3.45 28.96 -3.45 29.18 -3.45 29.4 -3.45 29.62 -3.45 29.85 -3.45 30.07 -3.45 30.29 -3.45 30.51 -3.45 30.74 -3.45 30.96 -3.45 31.18 -3.45 31.41 -3.45 31.63 -3.45 31.85 -3.45 32.07 -3.45 32.3 -3.45 32.52 -3.45 32.74 -3.45 32.97 -3.45 33.19 -3.45 33.41 -3.45 33.63 -3.45 33.86 -3.45 34.08 -3.45 34.3 -3.45 34.52 -3.45 34.75 -3.45 34.97 -3.45 35.19 -3.45 35.42 -3.45 35.64 -3.45 35.86 -3.45 36.08 -3.45 36.31 -3.45 36.53 -3.45 36.75 -3.45 36.97 -3.45 37.2 -3.45 37.42 -3.45 37.64 -3.45 37.87 -3.45 38.09 -3.45 38.31 -3.45 38.53 -3.45 38.76 -3.45 38.98 -3.45 39.2 -3.45 39.42 -3.45 39.65 -3.45 39.87 -3.45 40.09 -3.45 40.32 -3.45 40.54 -3.45 40.76 -3.45 40.98 -3.45 41.21 -3.45 41.43 -3.45 41.65 -3.45 41.87 -3.45 42.1 -3.45 42.32 -3.45 42.54 -3.45 42.77 -3.45 42.99 -3.45 43.21 -3.45 43.43 -3.45 43.66 -3.45 43.88 -3.45 44.1 -3.45 44.32 -3.45 44.55 -3.45 44.77 -3.45 44.99 -3.45 45.22 -3.45 45.44 -3.45 45.66 -3.45 45.88 -3.45 46.11 -3.45 46.33 -3.45 46.55 -3.45 46.77 -3.45 47 -3.45 47.22 -3.45 47.44 -3.45 47.67 -3.45 47.89 -3.45 48.11 -3.45 48.33 -3.45 48.56 -3.45 48.78 -3.45 49 -3.45 49.22 -3.45 49.45 -3.45 49.67 -3.45 49.89 -3.45 50.12 -3.45" class="primitive"/>
            </g>
          </g>
        </g>
      </g>
    </g>
  </g>
  <g class="guide ylabels" font-size="2.82" font-family="'PT Sans Caption','Helvetica Neue','Helvetica',sans-serif" fill="#6C606B" id="img-cbc32d59-26">
    <g transform="translate(18.63,58.72)" id="img-cbc32d59-27">
      <g class="primitive">
        <text text-anchor="end" dy="0.35em">50</text>
      </g>
    </g>
    <g transform="translate(18.63,49.49)" id="img-cbc32d59-28">
      <g class="primitive">
        <text text-anchor="end" dy="0.35em">60</text>
      </g>
    </g>
    <g transform="translate(18.63,40.27)" id="img-cbc32d59-29">
      <g class="primitive">
        <text text-anchor="end" dy="0.35em">70</text>
      </g>
    </g>
    <g transform="translate(18.63,31.05)" id="img-cbc32d59-30">
      <g class="primitive">
        <text text-anchor="end" dy="0.35em">80</text>
      </g>
    </g>
    <g transform="translate(18.63,21.83)" id="img-cbc32d59-31">
      <g class="primitive">
        <text text-anchor="end" dy="0.35em">90</text>
      </g>
    </g>
    <g transform="translate(18.63,12.61)" id="img-cbc32d59-32">
      <g class="primitive">
        <text text-anchor="end" dy="0.35em">100</text>
      </g>
    </g>
  </g>
  <g font-size="3.88" font-family="'PT Sans','Helvetica Neue','Helvetica',sans-serif" fill="#564A55" stroke="#000000" stroke-opacity="0.000" id="img-cbc32d59-33">
    <g transform="translate(8.81,33.66)" id="img-cbc32d59-34">
      <g class="primitive">
        <text text-anchor="middle" dy="0.35em" transform="rotate(-90,0, 2)">Accuracy</text>
      </g>
    </g>
  </g>
  <g font-size="3.88" font-family="'PT Sans','Helvetica Neue','Helvetica',sans-serif" fill="#564A55" stroke="#000000" stroke-opacity="0.000" id="img-cbc32d59-35">
    <g transform="translate(77.32,5)" id="img-cbc32d59-36">
      <g class="primitive">
        <text text-anchor="middle" dy="0.6em">MersenneTwister(42)</text>
      </g>
    </g>
  </g>
</g>
<defs>
  <clipPath id="img-cbc32d59-4">
    <path d="M19.63,10.61 L 135 10.61 135 60.72 19.63 60.72" />
  </clipPath>
</defs>
</svg>
