<?xml version="1.0" encoding="UTF-8"?>
<svg xmlns="http://www.w3.org/2000/svg"
     xmlns:xlink="http://www.w3.org/1999/xlink"
     xmlns:gadfly="http://www.gadflyjl.org/ns"
     version="1.2"
     width="140mm" height="80mm" viewBox="0 0 140 80"
     stroke="none"
     fill="#000000"
     stroke-width="0.3"
     font-size="3.88"
>
<defs>
  <marker id="arrow" markerWidth="15" markerHeight="7" refX="5" refY="3.5" orient="auto" markerUnits="strokeWidth">
    <path d="M0,0 L15,3.5 L0,7 z" stroke="context-stroke" fill="context-stroke"/>
  </marker>
</defs>
<g class="plotroot xscalable yscalable" id="img-869e7858-1">
  <g font-size="3.88" font-family="'PT Sans','Helvetica Neue','Helvetica',sans-serif" fill="#564A55" stroke="#000000" stroke-opacity="0.000" id="img-869e7858-2">
    <g transform="translate(77.32,68.39)">
      <g class="primitive">
        <text text-anchor="middle" dy="0.6em">Every 10th Epoch</text>
      </g>
    </g>
  </g>
  <g class="guide xlabels" font-size="2.82" font-family="'PT Sans Caption','Helvetica Neue','Helvetica',sans-serif" fill="#6C606B" id="img-869e7858-3">
    <g transform="translate(21.63,61.72)">
      <g class="primitive">
        <text text-anchor="middle" dy="0.6em">0</text>
      </g>
    </g>
    <g transform="translate(43.91,61.72)">
      <g class="primitive">
        <text text-anchor="middle" dy="0.6em">100</text>
      </g>
    </g>
    <g transform="translate(66.18,61.72)">
      <g class="primitive">
        <text text-anchor="middle" dy="0.6em">200</text>
      </g>
    </g>
    <g transform="translate(88.45,61.72)">
      <g class="primitive">
        <text text-anchor="middle" dy="0.6em">300</text>
      </g>
    </g>
    <g transform="translate(110.73,61.72)">
      <g class="primitive">
        <text text-anchor="middle" dy="0.6em">400</text>
      </g>
    </g>
    <g transform="translate(133,61.72)">
      <g class="primitive">
        <text text-anchor="middle" dy="0.6em">500</text>
      </g>
    </g>
  </g>
  <g clip-path="url(#img-869e7858-4)">
    <g id="img-869e7858-5">
      <g pointer-events="visible" fill="#000000" fill-opacity="0.000" stroke="#000000" stroke-opacity="0.000" class="guide background" id="img-869e7858-6">
        <g transform="translate(77.32,35.66)" id="img-869e7858-7">
          <path d="M-57.68,-25.05 L 57.68 -25.05 57.68 25.05 -57.68 25.05 z" class="primitive"/>
        </g>
      </g>
      <g class="guide ygridlines xfixed" stroke-dasharray="0.5,0.5" stroke-width="0.2" stroke="#D0D0E0" id="img-869e7858-8">
        <g transform="translate(77.32,58.72)" id="img-869e7858-9">
          <path fill="none" d="M-57.68,0 L 57.68 0" class="primitive"/>
        </g>
        <g transform="translate(77.32,35.66)" id="img-869e7858-10">
          <path fill="none" d="M-57.68,0 L 57.68 0" class="primitive"/>
        </g>
        <g transform="translate(77.32,12.61)" id="img-869e7858-11">
          <path fill="none" d="M-57.68,0 L 57.68 0" class="primitive"/>
        </g>
      </g>
      <g class="guide xgridlines yfixed" stroke-dasharray="0.5,0.5" stroke-width="0.2" stroke="#D0D0E0" id="img-869e7858-12">
        <g transform="translate(21.63,35.66)" id="img-869e7858-13">
          <path fill="none" d="M0,-25.05 L 0 25.05" class="primitive"/>
        </g>
        <g transform="translate(43.91,35.66)" id="img-869e7858-14">
          <path fill="none" d="M0,-25.05 L 0 25.05" class="primitive"/>
        </g>
        <g transform="translate(66.18,35.66)" id="img-869e7858-15">
          <path fill="none" d="M0,-25.05 L 0 25.05" class="primitive"/>
        </g>
        <g transform="translate(88.45,35.66)" id="img-869e7858-16">
          <path fill="none" d="M0,-25.05 L 0 25.05" class="primitive"/>
        </g>
        <g transform="translate(110.73,35.66)" id="img-869e7858-17">
          <path fill="none" d="M0,-25.05 L 0 25.05" class="primitive"/>
        </g>
        <g transform="translate(133,35.66)" id="img-869e7858-18">
          <path fill="none" d="M0,-25.05 L 0 25.05" class="primitive"/>
        </g>
      </g>
      <g class="plotpanel" id="img-869e7858-19">
        <metadata>
          <boundingbox value="19.63166666666666mm 10.611666666666665mm 115.36833333333334mm 50.10333333333334mm"/>
          <unitbox value="-8.979213121623442 104.33808112211699 517.9584262432469 -108.67616224423398"/>
        </metadata>
        <g stroke-width="0.3" fill="#000000" fill-opacity="0.000" class="geometry" id="img-869e7858-20">
          <g class="color_LCHab{Float32}(70.0f0,60.0f0,240.0f0)" stroke-dasharray="none" stroke="#00BFFF" id="img-869e7858-21">
            <g transform="translate(71.97,14.48)" id="img-869e7858-22">
              <path fill="none" d="M-50.12,41.91 L -49.89 40.61 -49.67 39.32 -49.45 34.39 -49.22 10.31 -49 9.79 -48.78 9.27 -48.56 7.46 -48.33 6.94 -48.11 6.16 -47.89 5.9 -47.67 5.64 -47.44 5.64 -47.22 5.64 -47 5.64 -46.77 5.13 -46.55 5.13 -46.33 4.87 -46.11 4.87 -45.88 4.87 -45.66 4.87 -45.44 4.87 -45.22 4.87 -44.99 4.61 -44.77 4.61 -44.55 4.35 -44.32 4.09 -44.1 3.83 -43.88 3.31 -43.66 3.05 -43.43 2.8 -43.21 2.8 -42.99 2.8 -42.77 2.8 -42.54 2.8 -42.32 2.54 -42.1 2.28 -41.87 2.28 -41.65 2.28 -41.43 2.28 -41.21 2.28 -40.98 2.28 -40.76 2.02 -40.54 2.02 -40.32 2.02 -40.09 2.02 -39.87 1.76 -39.65 1.76 -39.42 1.76 -39.2 1.76 -38.98 1.76 -38.76 1.5 -38.53 1.5 -38.31 1.5 -38.09 1.5 -37.87 1.5 -37.64 1.5 -37.42 1.5 -37.2 1.5 -36.97 1.5 -36.75 1.24 -36.53 1.24 -36.31 0.98 -36.08 0.98 -35.86 0.98 -35.64 0.98 -35.42 0.98 -35.19 0.98 -34.97 1.24 -34.75 1.24 -34.52 0.98 -34.3 0.98 -34.08 0.72 -33.86 0.72 -33.63 0.72 -33.41 0.72 -33.19 0.72 -32.97 0.72 -32.74 0.72 -32.52 0.72 -32.3 0.72 -32.07 0.72 -31.85 0.72 -31.63 0.72 -31.41 0.72 -31.18 0.72 -30.96 0.72 -30.74 0.72 -30.51 0.72 -30.29 0.72 -30.07 0.72 -29.85 0.72 -29.62 0.72 -29.4 0.72 -29.18 0.72 -28.96 0.72 -28.73 0.72 -28.51 0.72 -28.29 0.72 -28.06 0.72 -27.84 0.72 -27.62 0.72 -27.4 0.72 -27.17 0.72 -26.95 0.72 -26.73 0.72 -26.51 0.72 -26.28 0.72 -26.06 0.72 -25.84 0.72 -25.61 0.72 -25.39 0.72 -25.17 0.72 -24.95 0.46 -24.72 0.46 -24.5 0.21 -24.28 0.21 -24.06 0.21 -23.83 0.21 -23.61 0.21 -23.39 0.21 -23.16 0.21 -22.94 0.21 -22.72 0.21 -22.5 0.21 -22.27 0.21 -22.05 0.21 -21.83 -0.05 -21.61 -0.31 -21.38 -0.31 -21.16 -0.31 -20.94 -0.31 -20.71 -0.31 -20.49 -0.31 -20.27 -0.31 -20.05 -0.31 -19.82 -0.31 -19.6 -0.31 -19.38 -0.31 -19.16 -0.31 -18.93 -0.31 -18.71 -0.31 -18.49 -0.57 -18.26 -0.57 -18.04 -0.57 -17.82 -0.83 -17.6 -0.83 -17.37 -0.83 -17.15 -0.83 -16.93 -0.83 -16.71 -0.83 -16.48 -0.83 -16.26 -0.83 -16.04 -1.09 -15.81 -1.09 -15.59 -1.09 -15.37 -1.09 -15.15 -1.09 -14.92 -1.09 -14.7 -1.09 -14.48 -1.09 -14.26 -1.09 -14.03 -1.09 -13.81 -1.09 -13.59 -1.09 -13.36 -1.09 -13.14 -1.09 -12.92 -1.09 -12.7 -1.09 -12.47 -1.09 -12.25 -1.09 -12.03 -1.09 -11.81 -1.09 -11.58 -1.09 -11.36 -1.09 -11.14 -1.09 -10.91 -1.09 -10.69 -1.09 -10.47 -1.09 -10.25 -1.09 -10.02 -1.09 -9.8 -1.09 -9.58 -1.09 -9.35 -1.09 -9.13 -1.09 -8.91 -1.09 -8.69 -1.09 -8.46 -1.09 -8.24 -1.09 -8.02 -1.09 -7.8 -1.09 -7.57 -1.09 -7.35 -1.09 -7.13 -1.09 -6.9 -1.09 -6.68 -1.09 -6.46 -1.09 -6.24 -1.09 -6.01 -1.09 -5.79 -1.09 -5.57 -1.09 -5.35 -1.09 -5.12 -1.09 -4.9 -1.09 -4.68 -1.09 -4.45 -1.09 -4.23 -1.09 -4.01 -1.09 -3.79 -1.35 -3.56 -1.35 -3.34 -1.35 -3.12 -1.35 -2.9 -1.35 -2.67 -1.35 -2.45 -1.35 -2.23 -1.35 -2 -1.35 -1.78 -1.35 -1.56 -1.35 -1.34 -1.35 -1.11 -1.35 -0.89 -1.09 -0.67 -1.09 -0.45 -1.09 -0.22 -1.09 -0 -1.09 0.22 -1.09 0.45 -1.09 0.67 -1.09 0.89 -1.09 1.11 -1.09 1.34 -1.09 1.56 -1.09 1.78 -1.09 2 -1.09 2.23 -1.09 2.45 -1.09 2.67 -1.09 2.9 -1.09 3.12 -1.09 3.34 -1.09 3.56 -1.09 3.79 -1.09 4.01 -1.09 4.23 -1.09 4.45 -1.09 4.68 -1.09 4.9 -1.09 5.12 -1.09 5.35 -1.09 5.57 -1.09 5.79 -1.09 6.01 -1.09 6.24 -1.09 6.46 -1.09 6.68 -1.09 6.9 -1.35 7.13 -1.35 7.35 -1.35 7.57 -1.35 7.8 -1.35 8.02 -1.35 8.24 -1.35 8.46 -1.35 8.69 -1.35 8.91 -1.35 9.13 -1.35 9.35 -1.35 9.58 -1.35 9.8 -1.35 10.02 -1.35 10.25 -1.35 10.47 -1.35 10.69 -1.35 10.91 -1.35 11.14 -1.35 11.36 -1.35 11.58 -1.35 11.81 -1.35 12.03 -1.35 12.25 -1.35 12.47 -1.35 12.7 -1.35 12.92 -1.35 13.14 -1.35 13.36 -1.35 13.59 -1.35 13.81 -1.35 14.03 -1.35 14.26 -1.35 14.48 -1.35 14.7 -1.35 14.92 -1.35 15.15 -1.35 15.37 -1.35 15.59 -1.35 15.81 -1.35 16.04 -1.35 16.26 -1.35 16.48 -1.35 16.71 -1.35 16.93 -1.35 17.15 -1.35 17.37 -1.35 17.6 -1.35 17.82 -1.35 18.04 -1.35 18.26 -1.35 18.49 -1.35 18.71 -1.35 18.93 -1.35 19.16 -1.35 19.38 -1.35 19.6 -1.35 19.82 -1.35 20.05 -1.35 20.27 -1.35 20.49 -1.35 20.71 -1.35 20.94 -1.35 21.16 -1.35 21.38 -1.35 21.61 -1.35 21.83 -1.35 22.05 -1.35 22.27 -1.35 22.5 -1.35 22.72 -1.35 22.94 -1.35 23.16 -1.35 23.39 -1.35 23.61 -1.35 23.83 -1.35 24.06 -1.35 24.28 -1.35 24.5 -1.35 24.72 -1.35 24.95 -1.35 25.17 -1.35 25.39 -1.35 25.61 -1.35 25.84 -1.35 26.06 -1.35 26.28 -1.35 26.51 -1.35 26.73 -1.35 26.95 -1.35 27.17 -1.35 27.4 -1.35 27.62 -1.35 27.84 -1.35 28.06 -1.35 28.29 -1.35 28.51 -1.35 28.73 -1.35 28.96 -1.35 29.18 -1.35 29.4 -1.35 29.62 -1.35 29.85 -1.35 30.07 -1.35 30.29 -1.35 30.51 -1.35 30.74 -1.35 30.96 -1.35 31.18 -1.35 31.41 -1.35 31.63 -1.35 31.85 -1.35 32.07 -1.35 32.3 -1.35 32.52 -1.35 32.74 -1.35 32.97 -1.35 33.19 -1.35 33.41 -1.35 33.63 -1.35 33.86 -1.35 34.08 -1.35 34.3 -1.35 34.52 -1.35 34.75 -1.35 34.97 -1.35 35.19 -1.35 35.42 -1.35 35.64 -1.61 35.86 -1.61 36.08 -1.61 36.31 -1.61 36.53 -1.61 36.75 -1.61 36.97 -1.61 37.2 -1.61 37.42 -1.61 37.64 -1.61 37.87 -1.61 38.09 -1.61 38.31 -1.61 38.53 -1.61 38.76 -1.61 38.98 -1.61 39.2 -1.61 39.42 -1.61 39.65 -1.61 39.87 -1.61 40.09 -1.61 40.32 -1.61 40.54 -1.61 40.76 -1.61 40.98 -1.61 41.21 -1.61 41.43 -1.61 41.65 -1.61 41.87 -1.61 42.1 -1.61 42.32 -1.61 42.54 -1.61 42.77 -1.61 42.99 -1.61 43.21 -1.61 43.43 -1.61 43.66 -1.61 43.88 -1.61 44.1 -1.61 44.32 -1.61 44.55 -1.61 44.77 -1.61 44.99 -1.61 45.22 -1.61 45.44 -1.61 45.66 -1.61 45.88 -1.61 46.11 -1.61 46.33 -1.61 46.55 -1.61 46.77 -1.61 47 -1.61 47.22 -1.61 47.44 -1.61 47.67 -1.61 47.89 -1.61 48.11 -1.61 48.33 -1.61 48.56 -1.61 48.78 -1.61 49 -1.61 49.22 -1.61 49.45 -1.61 49.67 -1.61 49.89 -1.61 50.12 -1.61" class="primitive"/>
            </g>
          </g>
        </g>
      </g>
    </g>
  </g>
  <g class="guide ylabels" font-size="2.82" font-family="'PT Sans Caption','Helvetica Neue','Helvetica',sans-serif" fill="#6C606B" id="img-869e7858-23">
    <g transform="translate(18.63,58.72)" id="img-869e7858-24">
      <g class="primitive">
        <text text-anchor="end" dy="0.35em">0</text>
      </g>
    </g>
    <g transform="translate(18.63,35.66)" id="img-869e7858-25">
      <g class="primitive">
        <text text-anchor="end" dy="0.35em">50</text>
      </g>
    </g>
    <g transform="translate(18.63,12.61)" id="img-869e7858-26">
      <g class="primitive">
        <text text-anchor="end" dy="0.35em">100</text>
      </g>
    </g>
  </g>
  <g font-size="3.88" font-family="'PT Sans','Helvetica Neue','Helvetica',sans-serif" fill="#564A55" stroke="#000000" stroke-opacity="0.000" id="img-869e7858-27">
    <g transform="translate(8.81,33.66)" id="img-869e7858-28">
      <g class="primitive">
        <text text-anchor="middle" dy="0.35em" transform="rotate(-90,0, 2)">Accuracy</text>
      </g>
    </g>
  </g>
  <g font-size="3.88" font-family="'PT Sans','Helvetica Neue','Helvetica',sans-serif" fill="#564A55" stroke="#000000" stroke-opacity="0.000" id="img-869e7858-29">
    <g transform="translate(77.32,5)" id="img-869e7858-30">
      <g class="primitive">
        <text text-anchor="middle" dy="0.6em">MersenneTwister(512)</text>
      </g>
    </g>
  </g>
</g>
<defs>
  <clipPath id="img-869e7858-4">
    <path d="M19.63,10.61 L 135 10.61 135 60.72 19.63 60.72" />
  </clipPath>
</defs>
</svg>
