<?xml version="1.0" encoding="UTF-8"?>
<svg xmlns="http://www.w3.org/2000/svg"
     xmlns:xlink="http://www.w3.org/1999/xlink"
     xmlns:gadfly="http://www.gadflyjl.org/ns"
     version="1.2"
     width="140mm" height="80mm" viewBox="0 0 140 80"
     stroke="none"
     fill="#000000"
     stroke-width="0.3"
     font-size="3.88"
>
<defs>
  <marker id="arrow" markerWidth="15" markerHeight="7" refX="5" refY="3.5" orient="auto" markerUnits="strokeWidth">
    <path d="M0,0 L15,3.5 L0,7 z" stroke="context-stroke" fill="context-stroke"/>
  </marker>
</defs>
<g class="plotroot xscalable yscalable" id="img-79191c81-1">
  <g font-size="3.88" font-family="'PT Sans','Helvetica Neue','Helvetica',sans-serif" fill="#564A55" stroke="#000000" stroke-opacity="0.000" id="img-79191c81-2">
    <g transform="translate(77.32,68.39)">
      <g class="primitive">
        <text text-anchor="middle" dy="0.6em">Every 10th Epoch</text>
      </g>
    </g>
  </g>
  <g class="guide xlabels" font-size="2.82" font-family="'PT Sans Caption','Helvetica Neue','Helvetica',sans-serif" fill="#6C606B" id="img-79191c81-3">
    <g transform="translate(21.63,61.72)">
      <g class="primitive">
        <text text-anchor="middle" dy="0.6em">0</text>
      </g>
    </g>
    <g transform="translate(43.91,61.72)">
      <g class="primitive">
        <text text-anchor="middle" dy="0.6em">100</text>
      </g>
    </g>
    <g transform="translate(66.18,61.72)">
      <g class="primitive">
        <text text-anchor="middle" dy="0.6em">200</text>
      </g>
    </g>
    <g transform="translate(88.45,61.72)">
      <g class="primitive">
        <text text-anchor="middle" dy="0.6em">300</text>
      </g>
    </g>
    <g transform="translate(110.73,61.72)">
      <g class="primitive">
        <text text-anchor="middle" dy="0.6em">400</text>
      </g>
    </g>
    <g transform="translate(133,61.72)">
      <g class="primitive">
        <text text-anchor="middle" dy="0.6em">500</text>
      </g>
    </g>
  </g>
  <g clip-path="url(#img-79191c81-4)">
    <g id="img-79191c81-5">
      <g pointer-events="visible" fill="#000000" fill-opacity="0.000" stroke="#000000" stroke-opacity="0.000" class="guide background" id="img-79191c81-6">
        <g transform="translate(77.32,35.66)" id="img-79191c81-7">
          <path d="M-57.68,-25.05 L 57.68 -25.05 57.68 25.05 -57.68 25.05 z" class="primitive"/>
        </g>
      </g>
      <g class="guide ygridlines xfixed" stroke-dasharray="0.5,0.5" stroke-width="0.2" stroke="#D0D0E0" id="img-79191c81-8">
        <g transform="translate(77.32,58.72)" id="img-79191c81-9">
          <path fill="none" d="M-57.68,0 L 57.68 0" class="primitive"/>
        </g>
        <g transform="translate(77.32,49.49)" id="img-79191c81-10">
          <path fill="none" d="M-57.68,0 L 57.68 0" class="primitive"/>
        </g>
        <g transform="translate(77.32,40.27)" id="img-79191c81-11">
          <path fill="none" d="M-57.68,0 L 57.68 0" class="primitive"/>
        </g>
        <g transform="translate(77.32,31.05)" id="img-79191c81-12">
          <path fill="none" d="M-57.68,0 L 57.68 0" class="primitive"/>
        </g>
        <g transform="translate(77.32,21.83)" id="img-79191c81-13">
          <path fill="none" d="M-57.68,0 L 57.68 0" class="primitive"/>
        </g>
        <g transform="translate(77.32,12.61)" id="img-79191c81-14">
          <path fill="none" d="M-57.68,0 L 57.68 0" class="primitive"/>
        </g>
      </g>
      <g class="guide xgridlines yfixed" stroke-dasharray="0.5,0.5" stroke-width="0.2" stroke="#D0D0E0" id="img-79191c81-15">
        <g transform="translate(21.63,35.66)" id="img-79191c81-16">
          <path fill="none" d="M0,-25.05 L 0 25.05" class="primitive"/>
        </g>
        <g transform="translate(43.91,35.66)" id="img-79191c81-17">
          <path fill="none" d="M0,-25.05 L 0 25.05" class="primitive"/>
        </g>
        <g transform="translate(66.18,35.66)" id="img-79191c81-18">
          <path fill="none" d="M0,-25.05 L 0 25.05" class="primitive"/>
        </g>
        <g transform="translate(88.45,35.66)" id="img-79191c81-19">
          <path fill="none" d="M0,-25.05 L 0 25.05" class="primitive"/>
        </g>
        <g transform="translate(110.73,35.66)" id="img-79191c81-20">
          <path fill="none" d="M0,-25.05 L 0 25.05" class="primitive"/>
        </g>
        <g transform="translate(133,35.66)" id="img-79191c81-21">
          <path fill="none" d="M0,-25.05 L 0 25.05" class="primitive"/>
        </g>
      </g>
      <g class="plotpanel" id="img-79191c81-22">
        <metadata>
          <boundingbox value="19.631666666666675mm 10.611666666666665mm 115.36833333333333mm 50.10333333333334mm"/>
          <unitbox value="-8.979213121623443 104.33808112211699 517.9584262432469 -108.67616224423398"/>
        </metadata>
        <g stroke-width="0.3" fill="#000000" fill-opacity="0.000" class="geometry" id="img-79191c81-23">
          <g class="color_LCHab{Float32}(70.0f0,60.0f0,240.0f0)" stroke-dasharray="none" stroke="#00BFFF" id="img-79191c81-24">
            <g transform="translate(71.97,13.91)" id="img-79191c81-25">
              <path fill="none" d="M-50.12,38.59 L -49.89 33.66 -49.67 20.97 -49.45 19.42 -49.22 15.53 -49 8.54 -48.78 4.91 -48.56 4.66 -48.33 4.4 -48.11 4.4 -47.89 4.4 -47.67 4.4 -47.44 3.62 -47.22 3.62 -47 3.62 -46.77 3.1 -46.55 3.1 -46.33 3.1 -46.11 3.1 -45.88 3.36 -45.66 3.36 -45.44 3.36 -45.22 3.36 -44.99 3.1 -44.77 3.1 -44.55 2.84 -44.32 2.84 -44.1 2.84 -43.88 2.84 -43.66 2.84 -43.43 2.84 -43.21 2.84 -42.99 2.84 -42.77 2.84 -42.54 2.58 -42.32 2.32 -42.1 2.07 -41.87 1.81 -41.65 1.81 -41.43 1.81 -41.21 1.55 -40.98 1.55 -40.76 1.55 -40.54 1.55 -40.32 1.55 -40.09 1.55 -39.87 1.55 -39.65 1.55 -39.42 1.55 -39.2 1.55 -38.98 1.29 -38.76 1.03 -38.53 1.03 -38.31 1.03 -38.09 1.03 -37.87 1.03 -37.64 1.03 -37.42 0.77 -37.2 0.77 -36.97 0.77 -36.75 0.77 -36.53 0.51 -36.31 0.51 -36.08 0.51 -35.86 0.51 -35.64 0.51 -35.42 0.25 -35.19 0.25 -34.97 0.25 -34.75 0.25 -34.52 0.25 -34.3 0.25 -34.08 0.25 -33.86 0.25 -33.63 0.25 -33.41 0.25 -33.19 0.25 -32.97 0.25 -32.74 0.25 -32.52 0.25 -32.3 0.25 -32.07 0.25 -31.85 0.25 -31.63 0.25 -31.41 0.25 -31.18 0.25 -30.96 0.25 -30.74 0.25 -30.51 0.25 -30.29 0.25 -30.07 0.25 -29.85 0.25 -29.62 0.25 -29.4 0.25 -29.18 0.25 -28.96 0.25 -28.73 0.25 -28.51 -0.01 -28.29 -0.01 -28.06 -0.01 -27.84 -0.01 -27.62 -0.01 -27.4 -0.01 -27.17 -0.01 -26.95 -0.01 -26.73 -0.01 -26.51 -0.01 -26.28 -0.01 -26.06 -0.01 -25.84 -0.01 -25.61 -0.01 -25.39 -0.01 -25.17 -0.01 -24.95 -0.01 -24.72 -0.01 -24.5 -0.01 -24.28 -0.01 -24.06 -0.01 -23.83 -0.01 -23.61 -0.01 -23.39 -0.01 -23.16 -0.01 -22.94 -0.01 -22.72 -0.01 -22.5 -0.01 -22.27 -0.01 -22.05 -0.27 -21.83 -0.27 -21.61 -0.27 -21.38 -0.27 -21.16 -0.27 -20.94 -0.27 -20.71 -0.27 -20.49 -0.27 -20.27 -0.27 -20.05 -0.27 -19.82 -0.27 -19.6 -0.27 -19.38 -0.27 -19.16 -0.27 -18.93 -0.27 -18.71 -0.27 -18.49 -0.27 -18.26 -0.27 -18.04 -0.27 -17.82 -0.27 -17.6 -0.27 -17.37 -0.27 -17.15 -0.27 -16.93 -0.27 -16.71 -0.52 -16.48 -0.52 -16.26 -0.52 -16.04 -0.52 -15.81 -0.78 -15.59 -0.78 -15.37 -0.78 -15.15 -0.78 -14.92 -0.78 -14.7 -0.78 -14.48 -0.78 -14.26 -0.78 -14.03 -0.78 -13.81 -0.78 -13.59 -0.78 -13.36 -0.78 -13.14 -0.78 -12.92 -0.78 -12.7 -0.78 -12.47 -0.78 -12.25 -0.78 -12.03 -0.78 -11.81 -0.78 -11.58 -0.78 -11.36 -0.78 -11.14 -0.78 -10.91 -0.78 -10.69 -0.78 -10.47 -0.78 -10.25 -0.78 -10.02 -0.78 -9.8 -0.78 -9.58 -0.78 -9.35 -0.78 -9.13 -0.78 -8.91 -0.78 -8.69 -0.78 -8.46 -0.78 -8.24 -0.78 -8.02 -0.78 -7.8 -0.78 -7.57 -0.78 -7.35 -0.78 -7.13 -0.78 -6.9 -0.78 -6.68 -0.78 -6.46 -0.78 -6.24 -0.78 -6.01 -0.78 -5.79 -0.78 -5.57 -0.78 -5.35 -0.78 -5.12 -0.78 -4.9 -0.78 -4.68 -0.78 -4.45 -0.78 -4.23 -0.78 -4.01 -0.78 -3.79 -0.78 -3.56 -0.78 -3.34 -0.78 -3.12 -0.78 -2.9 -0.78 -2.67 -0.78 -2.45 -0.78 -2.23 -0.78 -2 -0.78 -1.78 -0.78 -1.56 -0.78 -1.34 -0.78 -1.11 -0.78 -0.89 -0.78 -0.67 -0.78 -0.45 -0.78 -0.22 -0.78 -0 -0.78 0.22 -0.78 0.45 -0.78 0.67 -0.78 0.89 -0.78 1.11 -0.78 1.34 -0.78 1.56 -0.78 1.78 -0.78 2 -0.78 2.23 -0.78 2.45 -0.78 2.67 -0.78 2.9 -0.78 3.12 -0.78 3.34 -0.78 3.56 -0.78 3.79 -0.78 4.01 -0.78 4.23 -0.78 4.45 -0.78 4.68 -0.78 4.9 -0.78 5.12 -0.78 5.35 -0.78 5.57 -0.78 5.79 -0.78 6.01 -0.78 6.24 -0.78 6.46 -0.78 6.68 -0.78 6.9 -0.78 7.13 -0.78 7.35 -0.78 7.57 -0.78 7.8 -0.78 8.02 -0.78 8.24 -0.78 8.46 -0.78 8.69 -0.78 8.91 -0.78 9.13 -0.78 9.35 -0.78 9.58 -0.78 9.8 -0.78 10.02 -0.78 10.25 -0.78 10.47 -0.78 10.69 -0.78 10.91 -0.78 11.14 -0.78 11.36 -0.78 11.58 -0.78 11.81 -0.78 12.03 -0.78 12.25 -0.78 12.47 -0.78 12.7 -0.78 12.92 -0.78 13.14 -0.78 13.36 -0.78 13.59 -0.78 13.81 -0.78 14.03 -0.78 14.26 -0.78 14.48 -0.78 14.7 -0.78 14.92 -0.78 15.15 -0.78 15.37 -0.78 15.59 -0.78 15.81 -0.78 16.04 -0.78 16.26 -1.04 16.48 -1.04 16.71 -1.04 16.93 -1.04 17.15 -1.04 17.37 -1.04 17.6 -1.04 17.82 -1.04 18.04 -1.04 18.26 -1.04 18.49 -1.04 18.71 -1.04 18.93 -1.04 19.16 -1.04 19.38 -1.04 19.6 -1.04 19.82 -1.04 20.05 -1.04 20.27 -1.04 20.49 -1.04 20.71 -1.04 20.94 -1.04 21.16 -1.04 21.38 -1.04 21.61 -1.04 21.83 -1.04 22.05 -1.04 22.27 -1.04 22.5 -1.04 22.72 -1.04 22.94 -1.04 23.16 -1.04 23.39 -1.04 23.61 -1.04 23.83 -1.04 24.06 -1.04 24.28 -1.04 24.5 -1.04 24.72 -1.04 24.95 -1.04 25.17 -1.04 25.39 -1.04 25.61 -1.04 25.84 -1.04 26.06 -1.04 26.28 -1.04 26.51 -1.04 26.73 -1.04 26.95 -1.04 27.17 -1.04 27.4 -1.04 27.62 -1.04 27.84 -1.04 28.06 -1.04 28.29 -1.04 28.51 -1.04 28.73 -1.04 28.96 -1.04 29.18 -1.04 29.4 -1.04 29.62 -1.04 29.85 -1.04 30.07 -1.04 30.29 -1.04 30.51 -1.04 30.74 -1.04 30.96 -1.04 31.18 -1.04 31.41 -1.04 31.63 -1.04 31.85 -1.04 32.07 -1.04 32.3 -1.04 32.52 -1.04 32.74 -1.04 32.97 -1.04 33.19 -1.04 33.41 -1.04 33.63 -1.04 33.86 -1.04 34.08 -1.04 34.3 -1.04 34.52 -1.04 34.75 -1.04 34.97 -1.04 35.19 -1.04 35.42 -1.04 35.64 -1.04 35.86 -1.04 36.08 -1.04 36.31 -1.04 36.53 -1.04 36.75 -1.04 36.97 -1.04 37.2 -1.04 37.42 -1.04 37.64 -1.04 37.87 -1.04 38.09 -1.04 38.31 -1.04 38.53 -1.04 38.76 -1.04 38.98 -1.04 39.2 -1.04 39.42 -1.04 39.65 -1.04 39.87 -1.04 40.09 -1.04 40.32 -1.04 40.54 -1.04 40.76 -1.04 40.98 -1.04 41.21 -1.04 41.43 -1.04 41.65 -1.04 41.87 -1.04 42.1 -1.04 42.32 -1.04 42.54 -1.04 42.77 -1.04 42.99 -1.04 43.21 -1.04 43.43 -1.04 43.66 -1.04 43.88 -1.04 44.1 -1.04 44.32 -1.04 44.55 -1.04 44.77 -1.04 44.99 -1.04 45.22 -1.04 45.44 -1.04 45.66 -1.04 45.88 -1.04 46.11 -1.04 46.33 -1.04 46.55 -1.04 46.77 -1.04 47 -1.04 47.22 -1.04 47.44 -1.04 47.67 -1.04 47.89 -1.04 48.11 -1.04 48.33 -1.04 48.56 -1.04 48.78 -1.04 49 -1.04 49.22 -1.04 49.45 -1.04 49.67 -1.04 49.89 -1.04 50.12 -1.04" class="primitive"/>
            </g>
          </g>
        </g>
      </g>
    </g>
  </g>
  <g class="guide ylabels" font-size="2.82" font-family="'PT Sans Caption','Helvetica Neue','Helvetica',sans-serif" fill="#6C606B" id="img-79191c81-26">
    <g transform="translate(18.63,58.72)" id="img-79191c81-27">
      <g class="primitive">
        <text text-anchor="end" dy="0.35em">0</text>
      </g>
    </g>
    <g transform="translate(18.63,49.49)" id="img-79191c81-28">
      <g class="primitive">
        <text text-anchor="end" dy="0.35em">20</text>
      </g>
    </g>
    <g transform="translate(18.63,40.27)" id="img-79191c81-29">
      <g class="primitive">
        <text text-anchor="end" dy="0.35em">40</text>
      </g>
    </g>
    <g transform="translate(18.63,31.05)" id="img-79191c81-30">
      <g class="primitive">
        <text text-anchor="end" dy="0.35em">60</text>
      </g>
    </g>
    <g transform="translate(18.63,21.83)" id="img-79191c81-31">
      <g class="primitive">
        <text text-anchor="end" dy="0.35em">80</text>
      </g>
    </g>
    <g transform="translate(18.63,12.61)" id="img-79191c81-32">
      <g class="primitive">
        <text text-anchor="end" dy="0.35em">100</text>
      </g>
    </g>
  </g>
  <g font-size="3.88" font-family="'PT Sans','Helvetica Neue','Helvetica',sans-serif" fill="#564A55" stroke="#000000" stroke-opacity="0.000" id="img-79191c81-33">
    <g transform="translate(8.81,33.66)" id="img-79191c81-34">
      <g class="primitive">
        <text text-anchor="middle" dy="0.35em" transform="rotate(-90,0, 2)">Accuracy</text>
      </g>
    </g>
  </g>
  <g font-size="3.88" font-family="'PT Sans','Helvetica Neue','Helvetica',sans-serif" fill="#564A55" stroke="#000000" stroke-opacity="0.000" id="img-79191c81-35">
    <g transform="translate(77.32,5)" id="img-79191c81-36">
      <g class="primitive">
        <text text-anchor="middle" dy="0.6em">MersenneTwister(64)</text>
      </g>
    </g>
  </g>
</g>
<defs>
  <clipPath id="img-79191c81-4">
    <path d="M19.63,10.61 L 135 10.61 135 60.72 19.63 60.72" />
  </clipPath>
</defs>
</svg>
