<?xml version="1.0" encoding="UTF-8"?>
<svg xmlns="http://www.w3.org/2000/svg"
     xmlns:xlink="http://www.w3.org/1999/xlink"
     xmlns:gadfly="http://www.gadflyjl.org/ns"
     version="1.2"
     width="140mm" height="80mm" viewBox="0 0 140 80"
     stroke="none"
     fill="#000000"
     stroke-width="0.3"
     font-size="3.88"
>
<defs>
  <marker id="arrow" markerWidth="15" markerHeight="7" refX="5" refY="3.5" orient="auto" markerUnits="strokeWidth">
    <path d="M0,0 L15,3.5 L0,7 z" stroke="context-stroke" fill="context-stroke"/>
  </marker>
</defs>
<g class="plotroot xscalable yscalable" id="img-ceadb6cd-1">
  <g font-size="3.88" font-family="'PT Sans','Helvetica Neue','Helvetica',sans-serif" fill="#564A55" stroke="#000000" stroke-opacity="0.000" id="img-ceadb6cd-2">
    <g transform="translate(77.32,68.39)">
      <g class="primitive">
        <text text-anchor="middle" dy="0.6em">Every 10th Epoch</text>
      </g>
    </g>
  </g>
  <g class="guide xlabels" font-size="2.82" font-family="'PT Sans Caption','Helvetica Neue','Helvetica',sans-serif" fill="#6C606B" id="img-ceadb6cd-3">
    <g transform="translate(21.63,61.72)">
      <g class="primitive">
        <text text-anchor="middle" dy="0.6em">0</text>
      </g>
    </g>
    <g transform="translate(43.91,61.72)">
      <g class="primitive">
        <text text-anchor="middle" dy="0.6em">100</text>
      </g>
    </g>
    <g transform="translate(66.18,61.72)">
      <g class="primitive">
        <text text-anchor="middle" dy="0.6em">200</text>
      </g>
    </g>
    <g transform="translate(88.45,61.72)">
      <g class="primitive">
        <text text-anchor="middle" dy="0.6em">300</text>
      </g>
    </g>
    <g transform="translate(110.73,61.72)">
      <g class="primitive">
        <text text-anchor="middle" dy="0.6em">400</text>
      </g>
    </g>
    <g transform="translate(133,61.72)">
      <g class="primitive">
        <text text-anchor="middle" dy="0.6em">500</text>
      </g>
    </g>
  </g>
  <g clip-path="url(#img-ceadb6cd-4)">
    <g id="img-ceadb6cd-5">
      <g pointer-events="visible" fill="#000000" fill-opacity="0.000" stroke="#000000" stroke-opacity="0.000" class="guide background" id="img-ceadb6cd-6">
        <g transform="translate(77.32,35.66)" id="img-ceadb6cd-7">
          <path d="M-57.68,-25.05 L 57.68 -25.05 57.68 25.05 -57.68 25.05 z" class="primitive"/>
        </g>
      </g>
      <g class="guide ygridlines xfixed" stroke-dasharray="0.5,0.5" stroke-width="0.2" stroke="#D0D0E0" id="img-ceadb6cd-8">
        <g transform="translate(77.32,58.72)" id="img-ceadb6cd-9">
          <path fill="none" d="M-57.68,0 L 57.68 0" class="primitive"/>
        </g>
        <g transform="translate(77.32,35.66)" id="img-ceadb6cd-10">
          <path fill="none" d="M-57.68,0 L 57.68 0" class="primitive"/>
        </g>
        <g transform="translate(77.32,12.61)" id="img-ceadb6cd-11">
          <path fill="none" d="M-57.68,0 L 57.68 0" class="primitive"/>
        </g>
      </g>
      <g class="guide xgridlines yfixed" stroke-dasharray="0.5,0.5" stroke-width="0.2" stroke="#D0D0E0" id="img-ceadb6cd-12">
        <g transform="translate(21.63,35.66)" id="img-ceadb6cd-13">
          <path fill="none" d="M0,-25.05 L 0 25.05" class="primitive"/>
        </g>
        <g transform="translate(43.91,35.66)" id="img-ceadb6cd-14">
          <path fill="none" d="M0,-25.05 L 0 25.05" class="primitive"/>
        </g>
        <g transform="translate(66.18,35.66)" id="img-ceadb6cd-15">
          <path fill="none" d="M0,-25.05 L 0 25.05" class="primitive"/>
        </g>
        <g transform="translate(88.45,35.66)" id="img-ceadb6cd-16">
          <path fill="none" d="M0,-25.05 L 0 25.05" class="primitive"/>
        </g>
        <g transform="translate(110.73,35.66)" id="img-ceadb6cd-17">
          <path fill="none" d="M0,-25.05 L 0 25.05" class="primitive"/>
        </g>
        <g transform="translate(133,35.66)" id="img-ceadb6cd-18">
          <path fill="none" d="M0,-25.05 L 0 25.05" class="primitive"/>
        </g>
      </g>
      <g class="plotpanel" id="img-ceadb6cd-19">
        <metadata>
          <boundingbox value="19.631666666666675mm 10.611666666666665mm 115.36833333333333mm 50.10333333333334mm"/>
          <unitbox value="-8.979213121623443 104.33808112211699 517.9584262432469 -108.67616224423398"/>
        </metadata>
        <g stroke-width="0.3" fill="#000000" fill-opacity="0.000" class="geometry" id="img-ceadb6cd-20">
          <g class="color_LCHab{Float32}(70.0f0,60.0f0,240.0f0)" stroke-dasharray="none" stroke="#00BFFF" id="img-ceadb6cd-21">
            <g transform="translate(71.97,13.7)" id="img-ceadb6cd-22">
              <path fill="none" d="M-50.12,29.21 L -49.89 11.86 -49.67 10.3 -49.45 8.23 -49.22 5.64 -49 3.05 -48.78 2.53 -48.56 2.53 -48.33 1.76 -48.11 1.24 -47.89 0.98 -47.67 0.98 -47.44 0.98 -47.22 0.98 -47 0.98 -46.77 0.98 -46.55 0.98 -46.33 0.98 -46.11 0.46 -45.88 0.2 -45.66 0.2 -45.44 0.2 -45.22 0.2 -44.99 0.2 -44.77 0.2 -44.55 0.2 -44.32 0.2 -44.1 0.2 -43.88 0.2 -43.66 0.2 -43.43 0.2 -43.21 0.2 -42.99 0.2 -42.77 0.2 -42.54 0.2 -42.32 0.2 -42.1 0.2 -41.87 0.2 -41.65 0.2 -41.43 0.2 -41.21 0.2 -40.98 0.2 -40.76 0.2 -40.54 0.2 -40.32 0.2 -40.09 0.2 -39.87 0.2 -39.65 0.2 -39.42 0.2 -39.2 0.2 -38.98 0.2 -38.76 0.2 -38.53 0.2 -38.31 0.2 -38.09 0.2 -37.87 0.2 -37.64 0.2 -37.42 0.2 -37.2 0.2 -36.97 0.2 -36.75 0.2 -36.53 0.2 -36.31 0.2 -36.08 0.2 -35.86 0.2 -35.64 0.2 -35.42 0.2 -35.19 0.2 -34.97 0.2 -34.75 0.2 -34.52 0.2 -34.3 0.2 -34.08 0.2 -33.86 0.2 -33.63 0.2 -33.41 0.2 -33.19 0.2 -32.97 0.2 -32.74 0.2 -32.52 0.2 -32.3 0.2 -32.07 0.2 -31.85 0.2 -31.63 0.2 -31.41 0.2 -31.18 0.2 -30.96 0.2 -30.74 0.2 -30.51 0.2 -30.29 0.2 -30.07 0.2 -29.85 0.2 -29.62 -0.06 -29.4 -0.06 -29.18 -0.06 -28.96 -0.06 -28.73 -0.06 -28.51 -0.06 -28.29 -0.06 -28.06 -0.06 -27.84 -0.06 -27.62 -0.06 -27.4 -0.06 -27.17 -0.06 -26.95 -0.06 -26.73 -0.06 -26.51 -0.06 -26.28 -0.06 -26.06 -0.06 -25.84 -0.06 -25.61 -0.06 -25.39 -0.06 -25.17 -0.06 -24.95 -0.06 -24.72 -0.06 -24.5 -0.06 -24.28 -0.06 -24.06 -0.32 -23.83 -0.32 -23.61 -0.32 -23.39 -0.32 -23.16 -0.32 -22.94 -0.32 -22.72 -0.32 -22.5 -0.32 -22.27 -0.06 -22.05 -0.06 -21.83 -0.06 -21.61 -0.06 -21.38 -0.06 -21.16 -0.06 -20.94 -0.06 -20.71 -0.06 -20.49 -0.06 -20.27 -0.06 -20.05 -0.06 -19.82 -0.06 -19.6 -0.06 -19.38 -0.06 -19.16 -0.06 -18.93 -0.06 -18.71 -0.06 -18.49 -0.06 -18.26 -0.06 -18.04 -0.06 -17.82 -0.06 -17.6 -0.06 -17.37 -0.06 -17.15 -0.06 -16.93 -0.06 -16.71 -0.06 -16.48 -0.06 -16.26 -0.06 -16.04 -0.06 -15.81 -0.06 -15.59 -0.06 -15.37 -0.06 -15.15 -0.06 -14.92 -0.06 -14.7 -0.06 -14.48 -0.06 -14.26 -0.32 -14.03 -0.32 -13.81 -0.32 -13.59 -0.32 -13.36 -0.32 -13.14 -0.32 -12.92 -0.32 -12.7 -0.32 -12.47 -0.32 -12.25 -0.32 -12.03 -0.32 -11.81 -0.32 -11.58 -0.32 -11.36 -0.32 -11.14 -0.32 -10.91 -0.32 -10.69 -0.32 -10.47 -0.32 -10.25 -0.32 -10.02 -0.32 -9.8 -0.32 -9.58 -0.32 -9.35 -0.32 -9.13 -0.32 -8.91 -0.32 -8.69 -0.32 -8.46 -0.32 -8.24 -0.32 -8.02 -0.32 -7.8 -0.32 -7.57 -0.32 -7.35 -0.32 -7.13 -0.32 -6.9 -0.32 -6.68 -0.32 -6.46 -0.32 -6.24 -0.32 -6.01 -0.32 -5.79 -0.32 -5.57 -0.32 -5.35 -0.32 -5.12 -0.32 -4.9 -0.32 -4.68 -0.32 -4.45 -0.32 -4.23 -0.32 -4.01 -0.32 -3.79 -0.32 -3.56 -0.32 -3.34 -0.32 -3.12 -0.32 -2.9 -0.32 -2.67 -0.32 -2.45 -0.32 -2.23 -0.32 -2 -0.32 -1.78 -0.32 -1.56 -0.32 -1.34 -0.32 -1.11 -0.32 -0.89 -0.32 -0.67 -0.32 -0.45 -0.32 -0.22 -0.32 -0 -0.32 0.22 -0.32 0.45 -0.32 0.67 -0.32 0.89 -0.32 1.11 -0.32 1.34 -0.32 1.56 -0.32 1.78 -0.32 2 -0.32 2.23 -0.32 2.45 -0.32 2.67 -0.32 2.9 -0.32 3.12 -0.32 3.34 -0.32 3.56 -0.32 3.79 -0.32 4.01 -0.32 4.23 -0.32 4.45 -0.32 4.68 -0.32 4.9 -0.32 5.12 -0.32 5.35 -0.32 5.57 -0.32 5.79 -0.32 6.01 -0.32 6.24 -0.32 6.46 -0.32 6.68 -0.32 6.9 -0.32 7.13 -0.32 7.35 -0.32 7.57 -0.32 7.8 -0.32 8.02 -0.32 8.24 -0.32 8.46 -0.32 8.69 -0.32 8.91 -0.32 9.13 -0.32 9.35 -0.32 9.58 -0.32 9.8 -0.32 10.02 -0.32 10.25 -0.32 10.47 -0.32 10.69 -0.32 10.91 -0.32 11.14 -0.32 11.36 -0.32 11.58 -0.32 11.81 -0.32 12.03 -0.32 12.25 -0.32 12.47 -0.32 12.7 -0.32 12.92 -0.32 13.14 -0.32 13.36 -0.32 13.59 -0.32 13.81 -0.32 14.03 -0.32 14.26 -0.32 14.48 -0.32 14.7 -0.32 14.92 -0.32 15.15 -0.32 15.37 -0.32 15.59 -0.32 15.81 -0.32 16.04 -0.32 16.26 -0.32 16.48 -0.32 16.71 -0.32 16.93 -0.32 17.15 -0.32 17.37 -0.32 17.6 -0.32 17.82 -0.32 18.04 -0.32 18.26 -0.32 18.49 -0.32 18.71 -0.32 18.93 -0.32 19.16 -0.32 19.38 -0.32 19.6 -0.32 19.82 -0.32 20.05 -0.32 20.27 -0.32 20.49 -0.32 20.71 -0.32 20.94 -0.32 21.16 -0.32 21.38 -0.32 21.61 -0.32 21.83 -0.32 22.05 -0.32 22.27 -0.32 22.5 -0.32 22.72 -0.32 22.94 -0.32 23.16 -0.32 23.39 -0.32 23.61 -0.32 23.83 -0.32 24.06 -0.32 24.28 -0.32 24.5 -0.32 24.72 -0.32 24.95 -0.32 25.17 -0.32 25.39 -0.32 25.61 -0.32 25.84 -0.32 26.06 -0.32 26.28 -0.32 26.51 -0.32 26.73 -0.32 26.95 -0.32 27.17 -0.32 27.4 -0.32 27.62 -0.32 27.84 -0.32 28.06 -0.32 28.29 -0.32 28.51 -0.32 28.73 -0.32 28.96 -0.32 29.18 -0.32 29.4 -0.32 29.62 -0.32 29.85 -0.32 30.07 -0.32 30.29 -0.32 30.51 -0.32 30.74 -0.32 30.96 -0.32 31.18 -0.32 31.41 -0.32 31.63 -0.32 31.85 -0.32 32.07 -0.32 32.3 -0.32 32.52 -0.32 32.74 -0.32 32.97 -0.32 33.19 -0.32 33.41 -0.32 33.63 -0.32 33.86 -0.32 34.08 -0.32 34.3 -0.32 34.52 -0.32 34.75 -0.32 34.97 -0.32 35.19 -0.32 35.42 -0.32 35.64 -0.32 35.86 -0.32 36.08 -0.32 36.31 -0.32 36.53 -0.32 36.75 -0.32 36.97 -0.32 37.2 -0.32 37.42 -0.32 37.64 -0.32 37.87 -0.32 38.09 -0.32 38.31 -0.32 38.53 -0.32 38.76 -0.32 38.98 -0.32 39.2 -0.32 39.42 -0.32 39.65 -0.32 39.87 -0.32 40.09 -0.32 40.32 -0.32 40.54 -0.32 40.76 -0.32 40.98 -0.32 41.21 -0.32 41.43 -0.32 41.65 -0.32 41.87 -0.32 42.1 -0.32 42.32 -0.32 42.54 -0.32 42.77 -0.32 42.99 -0.32 43.21 -0.32 43.43 -0.32 43.66 -0.32 43.88 -0.32 44.1 -0.32 44.32 -0.32 44.55 -0.32 44.77 -0.32 44.99 -0.32 45.22 -0.32 45.44 -0.32 45.66 -0.32 45.88 -0.32 46.11 -0.32 46.33 -0.32 46.55 -0.32 46.77 -0.32 47 -0.32 47.22 -0.32 47.44 -0.32 47.67 -0.32 47.89 -0.32 48.11 -0.32 48.33 -0.32 48.56 -0.32 48.78 -0.57 49 -0.57 49.22 -0.57 49.45 -0.57 49.67 -0.57 49.89 -0.57 50.12 -0.57" class="primitive"/>
            </g>
          </g>
        </g>
      </g>
    </g>
  </g>
  <g class="guide ylabels" font-size="2.82" font-family="'PT Sans Caption','Helvetica Neue','Helvetica',sans-serif" fill="#6C606B" id="img-ceadb6cd-23">
    <g transform="translate(18.63,58.72)" id="img-ceadb6cd-24">
      <g class="primitive">
        <text text-anchor="end" dy="0.35em">0</text>
      </g>
    </g>
    <g transform="translate(18.63,35.66)" id="img-ceadb6cd-25">
      <g class="primitive">
        <text text-anchor="end" dy="0.35em">50</text>
      </g>
    </g>
    <g transform="translate(18.63,12.61)" id="img-ceadb6cd-26">
      <g class="primitive">
        <text text-anchor="end" dy="0.35em">100</text>
      </g>
    </g>
  </g>
  <g font-size="3.88" font-family="'PT Sans','Helvetica Neue','Helvetica',sans-serif" fill="#564A55" stroke="#000000" stroke-opacity="0.000" id="img-ceadb6cd-27">
    <g transform="translate(8.81,33.66)" id="img-ceadb6cd-28">
      <g class="primitive">
        <text text-anchor="middle" dy="0.35em" transform="rotate(-90,0, 2)">Accuracy</text>
      </g>
    </g>
  </g>
  <g font-size="3.88" font-family="'PT Sans','Helvetica Neue','Helvetica',sans-serif" fill="#564A55" stroke="#000000" stroke-opacity="0.000" id="img-ceadb6cd-29">
    <g transform="translate(77.32,5)" id="img-ceadb6cd-30">
      <g class="primitive">
        <text text-anchor="middle" dy="0.6em">MersenneTwister(92)</text>
      </g>
    </g>
  </g>
</g>
<defs>
  <clipPath id="img-ceadb6cd-4">
    <path d="M19.63,10.61 L 135 10.61 135 60.72 19.63 60.72" />
  </clipPath>
</defs>
</svg>
